<svg width="1066" height="716" viewBox="0 0 1066 716" fill="none" xmlns="http://www.w3.org/2000/svg">
<g clip-path="url(#clip0_214_83)">
<path fill-rule="evenodd" clip-rule="evenodd" d="M711.911 514.555C716.21 498.982 716.731 483.445 712.963 468.421C692.779 387.946 557.165 352.618 410.06 389.513C262.956 426.409 160.066 521.556 180.25 602.031C200.434 682.506 336.048 717.834 483.153 680.938C525.737 670.258 564.616 654.696 597.877 636.021C595.353 649.911 595.974 663.751 600.164 677.029C620.689 742.075 719.091 769.004 819.952 737.178C920.812 705.352 985.936 626.821 965.411 561.776C944.886 496.73 846.484 469.8 745.624 501.627C733.875 505.334 722.611 509.675 711.911 514.555Z" fill="#FFEE9D" fill-opacity="0.4"/>
<path d="M690.608 908.102C791.533 876.912 817.761 934.008 829.773 963.85C834.429 975.418 840 972.169 840 959.701V595.475C840 590.199 834.011 587.145 829.732 590.24L604.383 753.222C591.112 762.82 587.119 780.81 595.084 795.111L649.501 892.806C657.479 907.13 674.93 912.947 690.608 908.102Z" fill="#225083"/>
<path d="M115 712.5C264.465 648.603 452.867 564.056 491.469 546.993C496.531 544.756 501.912 543.75 507.439 544.052L849.763 562.76C862.193 563.439 866.572 579.543 856.19 586.401L604.217 752.853C599.048 756.268 593.004 758.126 586.806 758.208L144.846 763.997C109.416 764.461 82.4295 726.424 115 712.5Z" fill="#ADD1F6"/>
<path d="M523.383 692.388C515.62 696.725 440.899 694.899 436 692.388L500.728 647.318C535.997 640.171 615.074 631.574 613.989 634.637C612.633 638.466 535.151 685.813 523.383 692.388Z" fill="#225083"/>
<path d="M646.372 462.846C621.58 462.846 616.65 456.073 598.941 439.818L455.5 447.945C441.333 442.527 421.144 429.252 404.144 435.754C381.122 452.009 345.705 433.045 349.247 447.945C352.788 462.846 436.02 477.747 430.707 489.938C425.395 502.13 407.686 517.03 404.144 537.349C400.602 557.669 430.674 550.79 441.299 544.017C505.051 511.506 467.896 569.86 499.771 565.796C531.647 561.732 541.343 508.903 564.364 511.612C573.413 512.677 598.941 537.349 620.468 534.587C635.144 529.491 609.566 523.803 616.65 511.612C623.733 499.42 641.271 498.532 655.438 491.759C669.605 484.986 689.636 460.108 679.011 458.754C668.385 457.399 671.165 462.846 646.372 462.846Z" fill="#225083"/>
<path d="M589.433 589.721L500.285 621.996C493.904 626.837 429.896 693 436.474 693C454.022 693 533.785 655.884 540.166 652.657C546.547 649.429 605.564 594.562 603.968 589.721C602.692 585.848 592.623 589.721 589.433 589.721Z" fill="#76B6F8"/>
<path d="M533.5 648.5L442.5 686.5C436.473 690 435.027 693 436.5 693C454.048 693 533.785 655.884 540.166 652.657C546.547 649.429 605.564 594.562 603.968 589.721C602.692 585.848 536.691 648.5 533.5 648.5Z" fill="#8FC4FB"/>
<path d="M577.581 599L528.282 616.5C524.054 619.46 463.867 669 468.226 669C479.853 669 536.355 643.393 540.583 641.42C544.811 639.447 586.037 604.919 584.98 601.96C584.135 599.592 579.695 599 577.581 599Z" fill="#267FDB"/>
<path fill-rule="evenodd" clip-rule="evenodd" d="M512.565 623.519C513.184 624.17 513.137 625.18 512.46 625.775L482.175 652.397C481.833 652.698 481.443 652.938 481.021 653.107L470.217 657.431C469.387 657.764 468.436 657.475 467.93 656.737C467.395 655.958 467.511 654.904 468.202 654.259L492.189 631.854C492.847 631.24 493.899 631.254 494.538 631.886C495.177 632.519 495.162 633.53 494.504 634.144L478.83 648.784C478.154 649.416 478.853 650.516 479.712 650.172C479.801 650.136 479.882 650.086 479.954 650.023L510.218 623.418C510.895 622.823 511.946 622.868 512.565 623.519Z" fill="#225083"/>
<path d="M407.673 600.453L497.949 550.401C498.751 549.956 499.703 549.877 500.567 550.185L601.849 586.273C604.18 587.104 604.755 590.169 602.888 591.806L540.809 646.205C539.969 646.941 538.813 647.187 537.751 646.855L408.271 606.419C405.553 605.57 405.178 601.835 407.673 600.453Z" fill="#4198F2"/>
<path fill-rule="evenodd" clip-rule="evenodd" d="M528.699 558.506L540 562.851C536.15 565.442 514.77 577.574 491 575.829L509.765 562.467L519.38 556C521.655 556.765 525.175 557.639 528.699 558.506Z" fill="#225083"/>
<path d="M390.978 447.254C376.043 457.28 375.796 460.072 349.698 460.072C323.6 460.072 346.137 492.376 407.653 503.702C439.66 506.548 438.648 474.034 465.5 514.173C467.489 522.107 480.11 545.182 478.491 549.398C474.762 559.106 454.262 578.523 497.138 576.905C540.013 575.287 540.008 497.62 556.785 487.911C573.562 478.203 603.389 505.71 629.487 512.182C655.585 518.655 685.411 508.946 681.683 497.62C677.954 486.293 633.215 471.731 629.487 442.606C625.758 413.481 618.302 414.893 642.637 379.296C660.173 353.645 673.297 268.471 598.731 231.255C567.04 216.693 495.791 193.979 438.002 248.993C380.214 304.007 400.481 389.028 400.481 395.5C400.481 401.972 400.481 440.875 390.978 447.254Z" fill="#59C7FE"/>
<path fill-rule="evenodd" clip-rule="evenodd" d="M561.936 473.01C562.701 474.623 562.015 476.549 560.403 477.313C558.568 478.182 553.561 481.409 549.979 486.596C546.216 492.045 544.426 495.441 543.177 498.745C542.283 501.111 541.665 503.407 540.839 506.476C540.457 507.895 540.03 509.479 539.512 511.311C539.026 513.028 537.24 514.024 535.523 513.537C533.807 513.049 532.809 511.263 533.295 509.546C533.743 507.963 534.136 506.503 534.505 505.133C535.382 501.878 536.122 499.13 537.133 496.455C538.629 492.498 540.721 488.629 544.662 482.921C549.001 476.638 554.969 472.735 557.632 471.473C559.244 470.709 561.171 471.397 561.936 473.01Z" fill="white"/>
<g filter="url(#filter0_b_214_83)">
<path d="M528.979 254.311C528.282 256.465 531.407 259.346 535.957 260.747C540.507 262.147 548.633 261.752 549.329 259.599C550.025 257.445 543.028 254.349 538.478 252.949C533.928 251.548 529.675 252.158 528.979 254.311Z" fill="#B9E6FF" fill-opacity="0.5"/>
</g>
<g filter="url(#filter1_b_214_83)">
<path d="M504.07 240.598C504.575 242.807 501.487 245.565 497.174 246.759C492.861 247.952 485.347 247.156 484.842 244.947C484.338 242.738 491.033 239.951 495.346 238.758C499.659 237.565 503.565 238.388 504.07 240.598Z" fill="#B9E6FF" fill-opacity="0.5"/>
</g>
<path d="M548.091 104.535C548.091 127.018 529.564 145.243 506.71 145.243C483.856 145.243 465.329 127.018 465.329 104.535C465.329 82.053 483.856 63.8276 506.71 63.8276C529.564 63.8276 548.091 82.053 548.091 104.535Z" fill="#4198F2"/>
<path d="M548.091 104.535C548.091 127.018 529.564 145.243 506.71 145.243C483.856 145.243 465.329 127.018 465.329 104.535C465.329 82.053 483.856 63.8276 506.71 63.8276C529.564 63.8276 548.091 82.053 548.091 104.535Z" fill="#4198F2"/>
<path d="M514.692 111.074C517.817 118.005 521.375 124.8 522.821 126.19C524.267 127.58 527.204 130.228 531.379 127.063C534.867 124.419 535.465 122.067 534.26 118.014C533.374 115.031 530.526 106.921 529.875 105.29" stroke="#1670CD" stroke-width="2.5" stroke-linecap="round" stroke-linejoin="round"/>
<path d="M492.496 79.2607C492.496 79.2607 466.874 79.6698 477.888 99.9935C480.231 104.317 500.042 130.72 502.731 118.844C503.712 114.502 504.786 110.959 504.786 110.959" stroke="#1670CD" stroke-width="2.5" stroke-linecap="round" stroke-linejoin="round"/>
<path d="M503.148 72.4401C502.531 73.0129 512.618 62.3063 524.37 68.6897C528.522 70.9449 532.288 86.0946 530.577 100.134" stroke="#1670CD" stroke-width="2.5" stroke-linecap="round" stroke-linejoin="round"/>
<path d="M530.578 100.133C530.578 100.133 532.17 102.286 538.083 97.8779C540.673 95.9462 540.089 99.1265 537.847 101.883C536.006 104.144 530.75 106.876 529.876 105.288C527.622 101.191 531.308 101.086 530.578 100.133C529.92 99.2759 528.098 98.9634 526.07 97.0528C524.3 95.3851 506.724 84.3962 521.506 80.5533C521.954 80.2189 511.329 68.4615 498.429 73.9946C485.533 79.5264 494.059 96.1257 494.059 96.1257" stroke="#1670CD" stroke-width="2.5" stroke-linecap="round" stroke-linejoin="bevel"/>
<path d="M510.3 111.002C509.529 113.902 510.232 114.034 507.041 116.411C503.813 118.816 506.604 119.256 508.163 118.998C510.053 118.686 514.234 117.567 514.989 112.522C515.219 110.986 513.509 109.469 512.181 109.483C511.54 109.49 510.692 109.519 510.3 111.002V111.002Z" stroke="#1670CD" stroke-width="2.5" stroke-linecap="round" stroke-linejoin="round"/>
<path d="M510.164 111.018C509.389 109.866 509.245 108.144 509.02 106.155C508.685 103.169 509.538 99.6486 503.914 92.23C499.723 86.7018 493.663 95.2981 494.056 96.1263C494.45 96.9542 496.457 100.142 497.827 104.288C499.615 109.7 505.462 112.326 509.582 109.935" stroke="#1670CD" stroke-width="2.5" stroke-linecap="round" stroke-linejoin="round"/>
<path d="M499.326 93.6048C499.424 93.9035 500.315 94.4175 501.052 94.2082C501.788 93.9998 502.093 93.1479 501.994 92.8497C501.896 92.5513 501.219 92.4783 500.481 92.6873C499.745 92.8957 499.227 93.3074 499.326 93.6048L499.326 93.6048Z" fill="#4198F2" stroke="#1670CD" stroke-width="2.5"/>
<path d="M519.987 83.6128C520.161 83.8777 519.996 84.8664 519.356 85.2766C518.717 85.6869 517.845 85.3642 517.671 85.0998C517.499 84.8345 517.877 84.287 518.516 83.8767C519.155 83.4664 519.814 83.3487 519.987 83.613L519.987 83.6128Z" fill="#4198F2" stroke="#1670CD" stroke-width="2.5"/>
<path d="M521.504 80.5544C522.685 82.7159 522.847 84.4774 523.913 86.8648C525.461 90.3357 529.008 93.5097 528.408 98.5547" stroke="#1670CD" stroke-width="2.5" stroke-linecap="round" stroke-linejoin="round"/>
<path fill-rule="evenodd" clip-rule="evenodd" d="M476.43 94.2562C478.046 95.0351 478.715 96.9546 477.925 98.5436C477.359 99.6817 476.218 102.816 476.3 105.599C476.396 108.837 476.708 110.392 477.145 111.594C477.481 112.516 477.872 113.239 478.48 114.362C478.796 114.945 479.17 115.635 479.624 116.516C480.438 118.095 479.797 120.023 478.193 120.822C476.589 121.622 474.629 120.99 473.815 119.411C473.536 118.87 473.251 118.342 472.969 117.821C472.229 116.45 471.514 115.127 471.013 113.749C470.248 111.649 469.894 109.338 469.789 105.78C469.665 101.577 471.25 97.3778 472.074 95.723C472.864 94.134 474.815 93.4773 476.43 94.2562Z" fill="#ABD4FF" fill-opacity="0.5"/>
<path d="M491.664 317C500.837 317 506.621 311.35 508.794 306.565C509.556 304.887 508.101 303.29 506.206 303.29H494.363C491.827 303.29 489.309 302.888 486.907 302.1C485.824 301.745 484.656 302.369 484.458 303.458C483.393 309.323 483.597 317 491.664 317Z" fill="white"/>
<path fill-rule="evenodd" clip-rule="evenodd" d="M478.383 549.785C485.703 555.138 493.477 558.727 497.371 558.995C499.306 559.128 501.033 556.589 499.26 555.019C498.647 554.476 497.794 553.831 496.704 553.007C493.292 550.427 487.547 546.082 479.477 537.547C478.968 537.009 478.476 536.493 478 536C479.333 540.75 480.193 544.704 479.83 546.78C479.34 547.82 478.854 548.822 478.383 549.785Z" fill="#1BA8EF"/>
<path d="M458.183 276.456C458.66 269.702 464.528 264.521 471.29 264.884L490.697 265.926C497.459 266.289 502.553 272.058 502.076 278.813C501.599 285.567 495.731 290.748 488.969 290.385L469.562 289.343C462.8 288.98 457.706 283.211 458.183 276.456Z" fill="white"/>
<path fill-rule="evenodd" clip-rule="evenodd" d="M468.057 282.946C473.987 282.946 478.795 278.231 478.795 272.416C478.795 269.586 477.657 267.018 475.806 265.126L471.29 264.883C464.528 264.52 458.66 269.702 458.183 276.456C458.181 276.486 458.179 276.517 458.177 276.547C459.815 280.309 463.622 282.946 468.057 282.946Z" fill="#225083"/>
<path d="M511.82 283.364C512.297 276.609 518.166 271.428 524.927 271.791L544.334 272.833C551.096 273.196 556.19 278.965 555.713 285.72C555.236 292.474 549.368 297.655 542.606 297.292L523.199 296.251C516.437 295.888 511.343 290.118 511.82 283.364Z" fill="white"/>
<path fill-rule="evenodd" clip-rule="evenodd" d="M521.69 289.853C527.621 289.853 532.429 285.139 532.429 279.323C532.429 276.494 531.291 273.925 529.439 272.033L524.923 271.791C518.162 271.428 512.294 276.609 511.816 283.363C511.814 283.394 511.812 283.424 511.81 283.455C513.448 287.217 517.255 289.853 521.69 289.853Z" fill="#225083"/>
<path d="M735.911 205.055C735.911 229.475 715.623 249.271 690.596 249.271C665.569 249.271 645.281 229.475 645.281 205.055C645.281 180.635 665.569 160.839 690.596 160.839C715.623 160.839 735.911 180.635 735.911 205.055Z" fill="#E55F3D"/>
<path fill-rule="evenodd" clip-rule="evenodd" d="M711.192 205.819C711.271 207.765 710.649 209.123 709.614 210.013C708.58 210.903 706.91 211.516 704.425 211.638C701.94 211.76 698.861 211.374 695.368 210.448C694.043 210.097 692.671 209.672 691.266 209.176C693.009 206.505 694.654 203.566 696.142 200.431C699.993 198.976 703.578 197.417 706.813 195.807C707.577 196.854 708.248 197.881 708.82 198.88C710.329 201.512 711.112 203.872 711.192 205.819ZM683.391 214.026C684.272 213.016 685.148 211.92 686.008 210.747C682.988 209.499 679.889 207.978 676.803 206.209C672.771 207.109 668.896 207.779 665.279 208.216C665.273 209.494 665.331 210.704 665.454 211.837C665.777 214.823 666.534 217.191 667.625 218.835C668.717 220.48 670.035 221.257 671.415 221.426C672.794 221.594 674.532 221.189 676.649 219.937C678.765 218.684 681.068 216.69 683.391 214.026ZM686.492 215.535C687.445 214.443 688.385 213.265 689.305 212.011C690.808 212.541 692.281 212.998 693.714 213.378C697.458 214.37 701.02 214.86 704.151 214.706C707.281 214.552 710.203 213.734 712.305 211.927C714.407 210.119 715.171 207.767 715.071 205.315C714.971 202.863 714.01 200.136 712.393 197.315C711.774 196.236 711.053 195.132 710.235 194.012C711.745 193.177 713.156 192.333 714.456 191.488C717.854 189.279 720.587 187.003 722.343 184.777C724.099 182.552 724.995 180.217 724.294 178.067C723.593 175.918 721.469 174.485 718.703 173.611C715.936 172.737 712.336 172.353 708.229 172.386C706.657 172.399 704.995 172.473 703.257 172.608C703.264 171.242 703.201 169.942 703.069 168.717C702.796 166.193 702.223 163.94 701.319 162.084C699.589 161.675 697.821 161.362 696.02 161.152C696.373 161.491 696.711 161.897 697.029 162.377C698.12 164.021 698.878 166.389 699.201 169.375C699.323 170.508 699.382 171.718 699.375 172.996C695.759 173.433 691.885 174.103 687.854 175.003C684.767 173.234 681.668 171.712 678.647 170.464C679.507 169.291 680.382 168.196 681.263 167.186C683.587 164.522 685.889 162.528 688.006 161.275C688.25 161.131 688.488 160.998 688.722 160.876C686.522 160.963 684.362 161.203 682.253 161.586C680.86 162.779 679.49 164.155 678.163 165.676C677.21 166.769 676.27 167.946 675.349 169.2C673.848 168.67 672.375 168.213 670.942 167.834C669.751 167.518 668.578 167.253 667.431 167.044C666.045 167.85 664.707 168.726 663.422 169.667C665.198 169.838 667.167 170.201 669.289 170.764C670.613 171.115 671.984 171.539 673.389 172.035C671.645 174.706 670 177.646 668.512 180.782C664.662 182.237 661.078 183.795 657.844 185.405C657.08 184.358 656.409 183.33 655.837 182.332C655.114 181.071 654.558 179.873 654.165 178.753C653.231 179.983 652.36 181.263 651.557 182.587C651.777 183.021 652.012 183.458 652.264 183.897C652.883 184.976 653.604 186.08 654.421 187.2C652.911 188.035 651.5 188.879 650.2 189.724C649.203 190.372 648.263 191.026 647.389 191.682C646.801 193.494 646.329 195.355 645.982 197.259C647.403 195.634 649.566 193.846 652.415 191.993C653.618 191.212 654.93 190.427 656.341 189.646C658.215 191.879 660.445 194.148 662.988 196.383C662.224 199.608 661.737 202.689 661.523 205.546C659.899 205.672 658.354 205.741 656.901 205.753C653.069 205.784 649.984 205.418 647.787 204.725C646.714 204.386 645.899 203.985 645.306 203.54C645.289 204.043 645.28 204.548 645.28 205.055C645.28 205.84 645.301 206.62 645.342 207.395C645.542 207.467 645.745 207.536 645.953 207.601C648.719 208.475 652.319 208.859 656.427 208.826C657.998 208.813 659.66 208.739 661.398 208.604C661.39 209.97 661.453 211.27 661.586 212.495C661.932 215.696 662.761 218.462 664.136 220.533C665.51 222.604 667.536 224.123 670.339 224.465C673.142 224.807 676.03 223.888 678.697 222.311C681.363 220.733 684.002 218.39 686.492 215.535ZM697.878 196.505C700.372 195.487 702.717 194.433 704.884 193.36C703.624 191.869 702.19 190.353 700.593 188.836C700.216 190.103 699.798 191.387 699.339 192.683C698.881 193.978 698.392 195.254 697.878 196.505ZM708.315 191.566C706.441 189.332 704.211 187.063 701.666 184.827C702.43 181.603 702.917 178.523 703.131 175.666C704.756 175.54 706.301 175.471 707.755 175.459C711.586 175.428 714.672 175.794 716.868 176.488C719.065 177.181 720.18 178.134 720.525 179.193C720.87 180.253 720.519 181.644 719.125 183.41C717.731 185.177 715.41 187.158 712.24 189.219C711.038 190 709.726 190.785 708.315 191.566ZM695.61 192.227C696.353 190.129 696.982 188.071 697.501 186.072C695.887 184.71 694.147 183.36 692.29 182.04C690.432 180.718 688.548 179.491 686.662 178.363C684.167 178.956 681.607 179.641 679.006 180.418C676.406 181.194 673.893 182.025 671.488 182.896C670.607 184.851 669.788 186.886 669.045 188.984C668.302 191.082 667.673 193.14 667.154 195.139C668.768 196.501 670.509 197.851 672.367 199.172C674.225 200.493 676.108 201.721 677.994 202.849C680.49 202.256 683.049 201.571 685.649 200.795C688.249 200.018 690.761 199.187 693.166 198.316C694.047 196.361 694.867 194.326 695.61 192.227ZM695.087 179.634C693.94 178.818 692.781 178.035 691.615 177.287C694.269 176.766 696.824 176.357 699.243 176.059C699.093 177.971 698.814 179.998 698.402 182.114C697.339 181.278 696.233 180.45 695.087 179.634ZM678.074 177.558C679.68 177.079 681.275 176.632 682.853 176.218C680.771 175.118 678.705 174.145 676.688 173.305C675.527 175.095 674.407 177.02 673.348 179.058C674.891 178.539 676.468 178.038 678.074 177.558ZM666.776 184.708C664.283 185.725 661.939 186.779 659.772 187.852C661.032 189.342 662.466 190.858 664.062 192.374C664.439 191.107 664.857 189.824 665.315 188.529C665.774 187.234 666.262 185.959 666.776 184.708ZM669.57 201.577C668.423 200.762 667.316 199.933 666.253 199.096C665.841 201.213 665.562 203.241 665.411 205.154C667.832 204.855 670.387 204.446 673.042 203.925C671.876 203.176 670.717 202.393 669.57 201.577ZM686.581 203.654C684.976 204.133 683.382 204.58 681.804 204.994C683.885 206.093 685.95 207.066 687.967 207.906C689.127 206.117 690.248 204.192 691.306 202.155C689.763 202.673 688.187 203.174 686.581 203.654ZM680.479 184.935C684.604 183.702 688.776 185.242 689.797 188.374C690.818 191.506 688.302 195.044 684.176 196.276C680.051 197.509 675.879 195.969 674.858 192.837C673.837 189.705 676.353 186.167 680.479 184.935Z" fill="#F28D73"/>
<path fill-rule="evenodd" clip-rule="evenodd" d="M658.369 221.001C659.963 220.207 661.909 220.857 662.715 222.453C663.563 224.131 666.106 228.113 669.156 230.417C672.547 232.977 674.395 233.943 675.976 234.465C677.161 234.857 678.187 235.022 679.75 235.273C680.547 235.401 681.483 235.551 682.65 235.766C684.409 236.089 685.582 237.771 685.271 239.524C684.96 241.277 683.281 242.436 681.523 242.113C680.772 241.976 680.038 241.857 679.318 241.741C677.45 241.438 675.678 241.152 673.98 240.591C671.42 239.745 668.91 238.298 665.276 235.554C661.105 232.404 658.011 227.44 656.943 225.327C656.137 223.731 656.775 221.794 658.369 221.001Z" fill="#FFD3C8"/>
<path d="M403.393 184.343C403.393 205.325 386.883 222.333 366.517 222.333C346.151 222.333 329.641 205.325 329.641 184.343C329.641 163.362 346.151 146.354 366.517 146.354C386.883 146.354 403.393 163.362 403.393 184.343Z" fill="#ADD1F6"/>
<path fill-rule="evenodd" clip-rule="evenodd" d="M402.232 182.53C402.117 182.532 402.007 182.536 401.896 182.54C401.715 182.548 401.534 182.555 401.333 182.551L400.731 182.54C399.684 182.604 398.715 182.71 397.66 182.978C397.416 183.056 397.164 183.339 397.034 183.582L396.991 183.664L396.259 183.897C396.436 186.606 396.169 189.39 395.465 192.043C394.682 194.653 393.541 197.176 391.97 199.362L392.514 199.864C392.463 200.15 392.569 200.521 392.762 200.729C393.498 201.439 394.356 202.111 395.179 202.658L395.258 202.701C395.372 202.867 395.53 202.951 395.687 203.036L395.687 203.036C396.002 203.206 396.317 203.375 396.589 203.626C396.746 203.711 396.904 203.796 396.86 203.877C396.817 203.958 396.896 204.001 396.975 204.043C397.213 204.252 397.402 204.525 397.521 204.837C397.094 205.58 396.641 206.307 396.165 207.016C395.869 207.016 395.572 206.947 395.302 206.802C395.144 206.717 395.066 206.675 394.951 206.509C394.916 206.385 394.916 206.385 394.837 206.343C394.745 206.293 394.695 206.23 394.653 206.178C394.623 206.141 394.598 206.109 394.566 206.092C394.364 205.906 394.23 205.698 394.081 205.468C394.029 205.388 393.975 205.305 393.916 205.219C393.758 205.135 393.644 204.968 393.53 204.802L393.451 204.76C392.837 204.011 392.101 203.301 391.321 202.672L391.243 202.63C391.006 202.503 390.727 202.457 390.483 202.534C390.483 202.534 390.439 202.616 390.361 202.573L389.774 202.153C385.889 206.021 380.74 208.268 375.383 208.624L375.273 209.401C375.273 209.401 375.194 209.359 375.151 209.44C374.863 209.599 374.69 209.924 374.639 210.21C374.521 211.192 374.482 212.217 374.643 213.245L374.557 213.407C374.628 213.655 374.663 213.778 374.655 213.983C374.762 214.354 374.789 214.682 374.773 215.092C374.809 215.216 374.844 215.34 374.801 215.421C374.801 215.421 374.88 215.463 374.837 215.544C374.778 216.035 374.561 216.442 374.266 216.806C373.971 217.169 373.483 217.325 373.081 217.318C373.023 217.308 372.968 217.3 372.915 217.293C372.716 217.265 372.551 217.242 372.365 217.141C371.735 216.802 371.4 216.099 371.388 215.361C371.309 215.318 371.353 215.237 371.353 215.237C371.335 215.175 371.337 215.124 371.339 215.073C371.341 215.022 371.343 214.97 371.325 214.908C371.297 214.58 371.392 214.213 371.486 213.845L371.588 213.273L371.632 213.192C371.872 212.171 371.911 211.146 371.95 210.122C371.923 209.793 371.773 209.504 371.58 209.295C371.623 209.214 371.623 209.214 371.545 209.172L371.533 208.433C371.299 208.387 371.058 208.344 370.812 208.3C370.092 208.171 369.334 208.034 368.623 207.808C366.99 207.451 365.486 206.851 364.068 206.087C361.706 204.816 359.639 203.18 357.911 201.099L357.249 201.58C357.227 201.621 357.217 201.641 357.201 201.646C357.186 201.65 357.166 201.64 357.127 201.619C356.848 201.573 356.525 201.608 356.238 201.767L356.238 201.767C355.411 202.367 354.584 202.968 353.872 203.734L353.455 204.137C353.329 204.278 353.194 204.389 353.059 204.499C352.924 204.61 352.79 204.72 352.664 204.861C352.542 204.9 352.42 204.939 352.376 205.02C352.297 204.978 352.254 205.059 352.254 205.059C351.636 205.458 350.869 205.568 350.239 205.229C350.081 205.144 349.888 204.935 349.774 204.769C349.282 203.982 349.486 202.837 350.313 202.237C350.392 202.279 350.435 202.198 350.435 202.198C350.496 202.178 350.537 202.148 350.579 202.118C350.62 202.088 350.661 202.058 350.722 202.039C350.902 201.952 351.066 201.857 351.215 201.771C351.405 201.662 351.569 201.567 351.706 201.523C351.951 201.445 352.073 201.406 352.238 201.286L352.281 201.205C353.143 200.728 354.049 200.17 354.796 199.527C355.005 199.326 355.178 199.001 355.151 198.672C355.151 198.672 355.072 198.63 355.115 198.549L355.812 198.192C355.241 197.362 354.871 196.535 354.465 195.585C352.693 191.494 352.263 186.976 353.073 182.603L352.322 182.302C352.322 182.302 352.365 182.221 352.286 182.179C352.215 181.931 352.022 181.723 351.786 181.596L351.707 181.553C350.676 181.207 349.759 181.027 348.719 180.886L348.64 180.843C348.483 180.759 348.282 180.755 348.081 180.751C347.977 180.734 347.856 180.723 347.727 180.71C347.509 180.689 347.267 180.666 347.042 180.61C347.018 180.597 346.984 180.569 346.947 180.539C346.86 180.468 346.757 180.384 346.727 180.441C346.684 180.522 346.684 180.522 346.605 180.479C346.404 180.476 346.326 180.433 346.168 180.349C345.416 180.048 344.967 179.179 345.199 178.363C345.518 177.385 346.502 176.869 347.455 177.173C347.577 177.134 347.577 177.134 347.656 177.176C347.748 177.226 347.828 177.233 347.894 177.239C347.941 177.244 347.981 177.247 348.014 177.265C348.171 177.35 348.34 177.414 348.508 177.479C348.676 177.543 348.845 177.607 349.002 177.692C349.203 177.696 349.36 177.781 349.518 177.865C350.506 178.293 351.459 178.597 352.455 178.819C352.778 178.784 353.1 178.749 353.309 178.547C353.309 178.547 353.388 178.59 353.431 178.508L354.148 178.685C355.906 173.672 359.441 169.511 364.003 166.844C364.086 166.784 364.158 166.744 364.229 166.705C364.301 166.665 364.373 166.625 364.456 166.565L364.25 165.847C364.41 165.633 364.418 165.272 364.353 165.046C364.07 164.057 363.542 163.146 363.014 162.234L362.672 161.736L362.672 161.736C362.443 161.404 362.215 161.072 362.065 160.782C361.987 160.74 361.916 160.493 361.916 160.493C361.916 160.493 361.959 160.411 361.88 160.369C361.553 159.461 361.915 158.401 362.777 157.924C363.23 157.645 363.71 157.695 364.183 157.949C364.577 158.161 364.884 158.536 365.069 158.949L365.104 159.073C365.122 159.134 365.15 159.176 365.179 159.217C365.208 159.259 365.236 159.3 365.254 159.362C365.307 159.548 365.34 159.723 365.374 159.897C365.407 160.072 365.441 160.247 365.494 160.433C365.505 160.47 365.523 160.511 365.542 160.556C365.588 160.66 365.641 160.784 365.636 160.927C365.841 161.874 366.203 162.905 366.609 163.856C366.723 164.022 366.837 164.188 366.995 164.273C367.087 164.322 367.167 164.329 367.233 164.335C367.28 164.34 367.32 164.343 367.353 164.361L367.432 164.403L367.731 164.983C371.844 163.538 376.313 163.33 380.446 164.51C380.595 164.56 380.742 164.609 380.888 164.657C381.752 164.945 382.562 165.215 383.34 165.545L383.765 164.937L383.851 164.775C384.174 164.739 384.383 164.538 384.591 164.337C385.111 163.362 385.587 162.468 385.906 161.489L385.949 161.408C386.036 161.246 386.122 161.083 386.13 160.878C386.225 160.511 386.319 160.144 386.492 159.819L386.709 159.412C386.925 159.006 387.299 158.685 387.787 158.529C388.397 158.335 389 158.346 389.429 158.681C390.173 159.186 390.37 160.338 389.858 161.108L389.598 161.596C389.473 161.737 389.366 161.889 389.26 162.041C389.154 162.192 389.047 162.344 388.922 162.486C388.878 162.567 388.815 162.638 388.752 162.708C388.689 162.779 388.626 162.85 388.583 162.931L388.54 163.012C387.863 163.902 387.387 164.796 386.91 165.69C386.859 165.976 386.808 166.262 386.958 166.552L387.001 166.47L386.733 167.163C390.218 169.561 393.061 172.974 394.719 176.899C394.86 177.393 395.022 177.898 395.183 178.404C395.345 178.909 395.506 179.414 395.648 179.909L396.494 179.841L396.573 179.884C396.609 180.007 396.766 180.092 396.845 180.135C397.002 180.219 397.203 180.223 397.404 180.226C398.372 180.121 399.427 179.852 400.325 179.499C400.362 179.487 400.406 179.479 400.454 179.471C400.565 179.451 400.698 179.427 400.813 179.343C401.066 179.204 401.38 179.096 401.701 178.993C401.933 180.153 402.111 181.333 402.232 182.53ZM364.25 165.847L364.243 165.823L364.2 165.905C364.218 165.887 364.235 165.868 364.25 165.847ZM372.872 189.184L375.561 189.273L377.367 187.213L376.91 184.458L374.548 183.186L372.013 184.331L371.309 186.984L372.872 189.184ZM388.797 196.19C389.863 194.568 390.694 192.82 391.209 190.902C391.725 188.984 391.961 187.019 391.874 185.091L383.024 187.436C382.78 187.514 382.615 187.634 382.406 187.835C381.859 188.482 381.863 189.425 382.485 189.969L388.797 196.19ZM382.146 182.049L391.113 180.813C390.05 177.103 387.801 173.906 384.553 171.635L380.653 180.095C380.523 180.339 380.516 180.544 380.587 180.791C380.677 181.572 381.421 182.077 382.146 182.049ZM380.817 169.519L379.069 168.996C375.967 168.162 372.668 168.268 369.538 169.197L373.52 177.509C373.56 177.553 373.597 177.594 373.632 177.634C373.766 177.785 373.876 177.91 374.063 178.011C374.772 178.392 375.705 178.163 376.094 177.432L380.817 169.519ZM368.623 179.473L365.653 170.974C362.319 173.047 359.67 176.117 358.088 179.657L366.938 181.494C367.296 181.582 367.497 181.586 367.785 181.427C368.56 181.112 368.914 180.257 368.623 179.473ZM365.53 186.8L356.999 183.984C356.369 187.827 357.059 191.858 358.819 195.211L365.794 189.347C366.081 189.188 366.254 188.863 366.306 188.577C366.573 187.884 366.16 187.139 365.53 186.8ZM365.902 202.265C367.083 202.901 368.272 203.332 369.504 203.682C370.142 203.816 370.658 203.989 371.174 204.162L371.16 195.059C371.054 194.688 370.983 194.441 370.834 194.151C370.456 193.529 369.739 193.353 369.086 193.628L361.374 198.782C362.69 200.117 364.249 201.375 365.902 202.265ZM375.555 204.117C378.094 203.915 380.657 203.099 382.877 201.785C383.983 201.231 385.018 200.429 386.018 199.503L378.88 193.883C378.644 193.756 378.364 193.71 378.085 193.664L378.085 193.664C377.404 193.611 376.742 194.091 376.554 194.826L375.555 204.117Z" fill="#4198F2"/>
<path fill-rule="evenodd" clip-rule="evenodd" d="M339.212 185.053C340.97 185.284 342.227 186.918 342.02 188.701C341.892 189.799 341.876 192.715 342.716 194.963C343.723 197.656 344.407 198.834 345.069 199.672C345.588 200.329 346.084 200.798 346.883 201.552C347.308 201.954 347.82 202.437 348.467 203.073C349.746 204.331 349.791 206.393 348.568 207.678C347.345 208.964 345.316 208.986 344.037 207.728C343.67 207.367 343.295 207.012 342.921 206.659C341.915 205.707 340.916 204.76 340.089 203.714C338.821 202.109 337.848 200.212 336.728 197.215C335.382 193.614 335.461 189.533 335.655 187.865C335.862 186.081 337.455 184.822 339.212 185.053Z" fill="#DBEDFF"/>
<path d="M445.945 411.354C445.945 430.981 429.311 446.891 408.792 446.891C388.274 446.891 371.64 430.981 371.64 411.354C371.64 391.727 388.274 375.817 408.792 375.817C429.311 375.817 445.945 391.727 445.945 411.354Z" fill="#E98633"/>
<path fill-rule="evenodd" clip-rule="evenodd" d="M430.649 384.427L424.364 385.955L424.363 385.954C424.333 385.962 424.305 385.975 424.276 385.988C424.263 385.994 424.25 386 424.236 386.005C424.224 386.01 424.211 386.015 424.199 386.019C424.173 386.028 424.148 386.036 424.125 386.049C424.094 386.066 424.068 386.087 424.04 386.108C424.029 386.117 424.018 386.126 424.006 386.135C423.995 386.144 423.983 386.152 423.97 386.16C423.952 386.173 423.934 386.185 423.917 386.2C423.885 386.231 423.858 386.267 423.83 386.303C423.823 386.312 423.816 386.321 423.809 386.33C423.801 386.341 423.792 386.351 423.783 386.361C423.772 386.374 423.76 386.387 423.751 386.401C423.703 386.475 423.664 386.557 423.636 386.641L419.435 399.231L408.578 401.87L416.796 377.242C416.824 377.157 416.842 377.07 416.848 376.982C416.85 376.964 416.848 376.946 416.846 376.929C416.845 376.916 416.844 376.903 416.844 376.89C416.843 376.878 416.843 376.866 416.843 376.853C416.843 376.81 416.843 376.767 416.835 376.723C416.832 376.701 416.824 376.68 416.816 376.659C416.811 376.645 416.806 376.632 416.802 376.618C416.798 376.604 416.794 376.59 416.79 376.576C416.782 376.543 416.773 376.511 416.759 376.48C416.751 376.463 416.741 376.447 416.73 376.431C415.683 376.142 414.619 375.907 413.538 375.73L414.087 376.374L403.233 379.013L400.947 376.332C400.243 376.517 399.546 376.727 398.859 376.961L401.778 380.386L393.192 406.119L393.191 406.121C393.183 406.145 393.179 406.171 393.175 406.196C393.173 406.208 393.171 406.221 393.168 406.233C393.166 406.243 393.164 406.253 393.161 406.263C393.152 406.301 393.143 406.34 393.14 406.379L393.139 406.381C393.137 406.409 393.139 406.437 393.142 406.464C393.144 406.477 393.145 406.489 393.146 406.502C393.146 406.513 393.146 406.523 393.146 406.533C393.147 406.569 393.147 406.604 393.153 406.637L393.153 406.641C393.157 406.666 393.166 406.689 393.175 406.712C393.18 406.727 393.185 406.741 393.19 406.756C393.194 406.77 393.198 406.784 393.202 406.798C393.21 406.826 393.217 406.854 393.23 406.88L393.231 406.885C393.241 406.906 393.255 406.925 393.269 406.945C393.277 406.957 393.286 406.969 393.294 406.982C393.302 406.994 393.31 407.008 393.317 407.021C393.332 407.046 393.346 407.07 393.364 407.092L393.368 407.095L393.37 407.099L401.648 416.654L397.965 427.692L382.189 409.196L391.802 380.388C390.905 380.966 390.031 381.588 389.184 382.252L380.201 409.173C380.145 409.342 380.131 409.521 380.162 409.692C380.193 409.864 380.266 410.021 380.376 410.149L397.585 430.328C397.615 430.363 397.651 430.392 397.687 430.42C397.695 430.427 397.703 430.433 397.712 430.44C397.72 430.447 397.727 430.454 397.735 430.462C397.747 430.473 397.759 430.485 397.772 430.494C397.909 430.585 398.068 430.636 398.234 430.642C398.247 430.642 398.26 430.64 398.273 430.638C398.283 430.637 398.293 430.635 398.303 430.635L398.319 430.634C398.375 430.631 398.43 430.628 398.484 430.616L424.544 424.283C424.881 424.2 425.158 423.938 425.272 423.596L429.473 411.006L441.957 407.972C442.123 407.932 442.278 407.847 442.406 407.727C442.534 407.606 442.631 407.454 442.687 407.285L442.832 406.852C442.589 405.69 442.304 404.547 441.98 403.425L441.069 406.154L441.07 406.154L430.211 408.793L433.859 397.863L439.363 396.525C439.07 395.911 438.764 395.307 438.447 394.713L433.513 395.913L426.344 387.508L432.28 386.066C431.751 385.501 431.207 384.954 430.649 384.427ZM427.304 411.527L423.655 422.464L399.767 428.27L403.451 417.23L421.117 413.008L427.304 411.527ZM406.406 402.398L400.109 403.928L395.548 405.037L403.581 380.963L409.88 379.432L414.439 378.324L406.406 402.398ZM427.896 392.408L432.056 397.286L428.409 408.216L425.397 404.684L421.238 399.808L424.885 388.878L427.896 392.408ZM419 411.48L403.102 415.282L395.914 406.984L407.295 404.218L419.783 401.182L426.946 409.581L419 411.48Z" fill="#BD6A25"/>
<path fill-rule="evenodd" clip-rule="evenodd" d="M380.409 408.784C382.201 408.709 383.697 410.086 383.752 411.861C383.784 412.891 384.184 415.616 385.33 417.597C386.712 419.983 387.558 420.993 388.336 421.689C388.946 422.235 389.509 422.607 390.41 423.203C390.889 423.52 391.463 423.901 392.192 424.404C393.654 425.415 393.999 427.418 392.962 428.879C391.925 430.339 389.899 430.705 388.437 429.694C388.02 429.406 387.597 429.125 387.175 428.845C386.044 428.095 384.923 427.351 383.957 426.487C382.473 425.16 381.235 423.513 379.691 420.847C377.831 417.634 377.315 413.756 377.265 412.134C377.21 410.359 378.618 408.859 380.409 408.784Z" fill="#FBA258"/>
<path d="M333.895 303.88C333.895 323.274 318.307 338.996 299.077 338.996C279.848 338.996 264.259 323.274 264.259 303.88C264.259 284.487 279.848 268.765 299.077 268.765C318.307 268.765 333.895 284.487 333.895 303.88Z" fill="#FDF55D"/>
<g clip-path="url(#clip1_214_83)">
<path d="M277.692 283.357C277.054 284.765 276.416 286.173 275.779 287.582C275.51 288.176 275.686 288.982 276.372 289.864L278.286 285.638C277.6 284.757 277.423 283.95 277.692 283.357ZM327.938 312.614L329.851 308.389C329.579 308.991 328.849 309.374 327.729 309.394L325.816 313.619C326.936 313.599 327.665 313.216 327.938 312.614Z" fill="#FCCF32"/>
<path d="M278.286 285.639L276.373 289.864L292.81 310.973L294.723 306.748L278.286 285.639ZM301.254 309.885L299.34 314.111L325.816 313.62L327.73 309.395C318.905 309.558 310.079 309.722 301.254 309.885ZM294.723 306.748L292.81 310.973C294.191 312.747 297.115 314.152 299.34 314.111L301.254 309.885C299.029 309.927 296.105 308.522 294.723 306.748Z" fill="#FCCF32"/>
<path d="M274.277 290.832C273.639 292.241 273.001 293.649 272.364 295.057C272.095 295.651 272.271 296.458 272.957 297.339L274.871 293.114C274.185 292.233 274.008 291.426 274.277 290.832ZM324.523 320.09L326.436 315.865C326.164 316.466 325.434 316.849 324.314 316.87L322.401 321.095C323.521 321.074 324.25 320.691 324.523 320.09Z" fill="#FCCF32"/>
<path d="M274.871 293.114L272.958 297.339L289.395 318.448L291.309 314.223L274.871 293.114ZM297.839 317.361L295.925 321.586L322.401 321.095L324.315 316.87L297.839 317.361ZM291.309 314.223L289.395 318.448C290.777 320.223 293.7 321.627 295.925 321.586L297.839 317.361C295.614 317.402 292.69 315.997 291.309 314.223Z" fill="#FCCF32"/>
<path d="M280.14 278.113L278.97 280.699C278.965 280.71 278.96 280.721 278.955 280.732L280.126 278.146C280.131 278.135 280.136 278.124 280.14 278.113Z" fill="#FCCF32"/>
<path d="M280.126 278.146L278.955 280.731C278.925 280.804 278.902 280.879 278.886 280.957L280.057 278.371C280.073 278.293 280.096 278.218 280.126 278.146ZM280.057 278.371L278.886 280.957C278.87 281.035 278.861 281.116 278.86 281.198L280.03 278.612C280.032 278.53 280.041 278.45 280.057 278.371Z" fill="#FCCF32"/>
<path d="M280.031 278.612L278.86 281.198C278.858 281.285 278.864 281.374 278.877 281.462L280.048 278.877C280.035 278.788 280.029 278.7 280.031 278.612Z" fill="#FCCF32"/>
<path d="M280.048 278.876C279.658 279.738 279.267 280.6 278.877 281.462C278.892 281.563 278.915 281.664 278.946 281.764L280.117 279.179C280.086 279.079 280.063 278.978 280.048 278.876ZM280.117 279.179L278.947 281.764C278.986 281.891 279.037 282.016 279.097 282.137L280.268 279.552C280.207 279.43 280.157 279.305 280.117 279.179Z" fill="#FCCF32"/>
<path d="M280.268 279.552L279.097 282.137C279.193 282.333 279.319 282.535 279.475 282.742L280.646 280.156C280.489 279.949 280.364 279.747 280.268 279.552Z" fill="#FCCF32"/>
<path d="M280.646 280.156C280.255 281.018 279.865 281.88 279.475 282.742C279.488 282.759 279.501 282.776 279.514 282.793L280.685 280.208C280.672 280.19 280.659 280.173 280.646 280.156Z" fill="#FCCF32"/>
<path d="M330.35 304.07L329.179 306.656C330.207 306.637 330.877 306.285 331.127 305.733L332.298 303.147C332.048 303.7 331.378 304.051 330.35 304.07Z" fill="#FCCF32"/>
<path d="M280.686 280.208L279.515 282.793L296.242 304.275L297.413 301.69C291.837 294.529 286.262 287.368 280.686 280.208Z" fill="#FCCF32"/>
<path d="M303.407 304.569L302.236 307.155L329.179 306.655L330.35 304.07L303.407 304.569Z" fill="#FCCF32"/>
<path d="M297.413 301.689L296.242 304.275C296.459 304.554 296.718 304.823 297.008 305.077L298.179 302.492C297.889 302.238 297.63 301.969 297.413 301.689ZM298.179 302.492L297.008 305.077C297.232 305.274 297.475 305.461 297.731 305.637L298.902 303.052C298.65 302.879 298.408 302.692 298.179 302.492Z" fill="#FCCF32"/>
<path d="M298.903 303.052L297.732 305.637C297.896 305.751 298.067 305.859 298.242 305.963L299.413 303.377C299.238 303.274 299.067 303.165 298.903 303.052ZM299.413 303.377L298.242 305.963C298.392 306.051 298.544 306.136 298.7 306.216L299.871 303.63C299.716 303.55 299.563 303.466 299.413 303.377Z" fill="#FCCF32"/>
<path d="M299.87 303.63L298.699 306.216C298.842 306.289 298.987 306.36 299.133 306.426L300.304 303.841C300.158 303.774 300.013 303.704 299.87 303.63ZM300.304 303.841L299.133 306.426C299.273 306.49 299.416 306.55 299.559 306.607L300.73 304.022C300.587 303.965 300.445 303.905 300.304 303.841Z" fill="#FCCF32"/>
<path d="M300.73 304.022L299.559 306.607C299.701 306.664 299.845 306.716 299.989 306.765L301.16 304.18C301.016 304.131 300.873 304.078 300.73 304.022Z" fill="#FCCF32"/>
<path d="M301.16 304.179L299.989 306.765C300.138 306.815 300.288 306.861 300.438 306.903L301.609 304.318C301.46 304.276 301.31 304.23 301.16 304.179Z" fill="#FCCF32"/>
<path d="M301.61 304.318L300.439 306.903C300.6 306.948 300.762 306.987 300.924 307.021L302.095 304.436C301.934 304.402 301.772 304.363 301.61 304.318ZM302.095 304.436L300.924 307.021C301.118 307.062 301.313 307.094 301.508 307.117L302.679 304.532C302.484 304.508 302.289 304.476 302.095 304.436Z" fill="#FCCF32"/>
<path d="M302.679 304.531C302.288 305.393 301.898 306.255 301.508 307.117C301.757 307.146 302.001 307.159 302.236 307.155L303.407 304.57C303.172 304.574 302.928 304.561 302.679 304.531Z" fill="#FCCF32"/>
<path d="M282.087 277.191L309.031 276.691C311.074 276.653 313.757 277.942 315.025 279.571L331.752 301.053C333.021 302.681 332.393 304.032 330.35 304.07L303.407 304.57C301.364 304.607 298.681 303.318 297.413 301.69C291.837 294.529 286.261 287.368 280.685 280.207C279.417 278.579 280.045 277.228 282.087 277.191ZM314.647 283.823L310.476 283.071L307.664 279.409L307.623 282.65L303.569 282.19L307.715 284.945L308.022 288.322L310.625 286.784L314.868 289.332L312.331 285.626L314.647 283.823ZM321.204 298.39C322.177 298.372 322.954 298.094 323.349 297.547C324.251 296.296 322.814 294.109 320.139 292.662C318.634 291.849 317.059 291.443 315.808 291.466C314.835 291.484 314.057 291.762 313.663 292.309C312.761 293.56 314.198 295.747 316.873 297.194C318.377 298.007 319.953 298.413 321.204 298.39ZM301.249 299.626L313.145 299.406L300.801 291.302L301.249 299.626ZM294.169 289.304L303.991 289.122L297.894 281.291L288.072 281.473L294.169 289.304Z" fill="#FCCF32"/>
<path d="M277.692 283.357C277.054 284.765 276.416 286.173 275.779 287.582C275.51 288.176 275.686 288.982 276.372 289.864L278.286 285.638C277.6 284.757 277.423 283.95 277.692 283.357ZM327.938 312.614L329.851 308.389C329.579 308.991 328.849 309.374 327.729 309.394L325.816 313.619C326.936 313.599 327.665 313.216 327.938 312.614Z" fill="#FCCF32"/>
<path d="M278.286 285.639L276.373 289.864L292.81 310.973L294.723 306.748L278.286 285.639ZM301.254 309.885L299.34 314.111L325.816 313.62L327.73 309.395C318.905 309.558 310.079 309.722 301.254 309.885ZM294.723 306.748L292.81 310.973C294.191 312.747 297.115 314.152 299.34 314.111L301.254 309.885C299.029 309.927 296.105 308.522 294.723 306.748Z" fill="#FCCF32"/>
<path d="M274.277 290.832C273.639 292.241 273.001 293.649 272.364 295.057C272.095 295.651 272.271 296.458 272.957 297.339L274.871 293.114C274.185 292.233 274.008 291.426 274.277 290.832ZM324.523 320.09L326.436 315.865C326.164 316.466 325.434 316.849 324.314 316.87L322.401 321.095C323.521 321.074 324.25 320.691 324.523 320.09Z" fill="#FCCF32"/>
<path d="M274.871 293.114L272.958 297.339L289.395 318.448L291.309 314.223L274.871 293.114ZM297.839 317.361L295.925 321.586L322.401 321.095L324.315 316.87L297.839 317.361ZM291.309 314.223L289.395 318.448C290.777 320.223 293.7 321.627 295.925 321.586L297.839 317.361C295.614 317.402 292.69 315.997 291.309 314.223Z" fill="#FCCF32"/>
<path d="M280.14 278.113L278.97 280.699C278.965 280.71 278.96 280.721 278.955 280.732L280.126 278.146C280.131 278.135 280.136 278.124 280.14 278.113Z" fill="#FCCF32"/>
<path d="M280.126 278.146L278.955 280.731C278.925 280.804 278.902 280.879 278.886 280.957L280.057 278.371C280.073 278.293 280.096 278.218 280.126 278.146ZM280.057 278.371L278.886 280.957C278.87 281.035 278.861 281.116 278.86 281.198L280.03 278.612C280.032 278.53 280.041 278.45 280.057 278.371Z" fill="#FCCF32"/>
<path d="M280.031 278.612L278.86 281.198C278.858 281.285 278.864 281.374 278.877 281.462L280.048 278.877C280.035 278.788 280.029 278.7 280.031 278.612Z" fill="#FCCF32"/>
<path d="M280.048 278.876C279.658 279.738 279.267 280.6 278.877 281.462C278.892 281.563 278.915 281.664 278.946 281.764L280.117 279.179C280.086 279.079 280.063 278.978 280.048 278.876ZM280.117 279.179L278.947 281.764C278.986 281.891 279.037 282.016 279.097 282.137L280.268 279.552C280.207 279.43 280.157 279.305 280.117 279.179Z" fill="#FCCF32"/>
<path d="M280.268 279.552L279.097 282.137C279.193 282.333 279.319 282.535 279.475 282.742L280.646 280.156C280.489 279.949 280.364 279.747 280.268 279.552Z" fill="#FCCF32"/>
<path d="M280.646 280.156C280.255 281.018 279.865 281.88 279.475 282.742C279.488 282.759 279.501 282.776 279.514 282.793L280.685 280.208C280.672 280.19 280.659 280.173 280.646 280.156Z" fill="#FCCF32"/>
<path d="M330.35 304.07L329.179 306.656C330.207 306.637 330.877 306.285 331.127 305.733L332.298 303.147C332.048 303.7 331.378 304.051 330.35 304.07Z" fill="#FCCF32"/>
<path d="M280.686 280.208L279.515 282.793L296.242 304.275L297.413 301.69C291.837 294.529 286.262 287.368 280.686 280.208Z" fill="#FCCF32"/>
<path d="M303.407 304.569L302.236 307.155L329.179 306.655L330.35 304.07L303.407 304.569Z" fill="#FCCF32"/>
<path d="M297.413 301.689L296.242 304.275C296.459 304.554 296.718 304.823 297.008 305.077L298.179 302.492C297.889 302.238 297.63 301.969 297.413 301.689ZM298.179 302.492L297.008 305.077C297.232 305.274 297.475 305.461 297.731 305.637L298.902 303.052C298.65 302.879 298.408 302.692 298.179 302.492Z" fill="#FCCF32"/>
<path d="M298.903 303.052L297.732 305.637C297.896 305.751 298.067 305.859 298.242 305.963L299.413 303.377C299.238 303.274 299.067 303.165 298.903 303.052ZM299.413 303.377L298.242 305.963C298.392 306.051 298.544 306.136 298.7 306.216L299.871 303.63C299.716 303.55 299.563 303.466 299.413 303.377Z" fill="#FCCF32"/>
<path d="M299.87 303.63L298.699 306.216C298.842 306.289 298.987 306.36 299.133 306.426L300.304 303.841C300.158 303.774 300.013 303.704 299.87 303.63ZM300.304 303.841L299.133 306.426C299.273 306.49 299.416 306.55 299.559 306.607L300.73 304.022C300.587 303.965 300.445 303.905 300.304 303.841Z" fill="#FCCF32"/>
<path d="M300.73 304.022L299.559 306.607C299.701 306.664 299.845 306.716 299.989 306.765L301.16 304.18C301.016 304.131 300.873 304.078 300.73 304.022Z" fill="#FCCF32"/>
<path d="M301.16 304.179L299.989 306.765C300.138 306.815 300.288 306.861 300.438 306.903L301.609 304.318C301.46 304.276 301.31 304.23 301.16 304.179Z" fill="#FCCF32"/>
<path d="M301.61 304.318L300.439 306.903C300.6 306.948 300.762 306.987 300.924 307.021L302.095 304.436C301.934 304.402 301.772 304.363 301.61 304.318ZM302.095 304.436L300.924 307.021C301.118 307.062 301.313 307.094 301.508 307.117L302.679 304.532C302.484 304.508 302.289 304.476 302.095 304.436Z" fill="#FCCF32"/>
<path d="M302.679 304.531C302.288 305.393 301.898 306.255 301.508 307.117C301.757 307.146 302.001 307.159 302.236 307.155L303.407 304.57C303.172 304.574 302.928 304.561 302.679 304.531Z" fill="#FCCF32"/>
<path d="M282.087 277.191L309.031 276.691C311.074 276.653 313.757 277.942 315.025 279.571L331.752 301.053C333.021 302.681 332.393 304.032 330.35 304.07L303.407 304.57C301.364 304.607 298.681 303.318 297.413 301.69C291.837 294.529 286.261 287.368 280.685 280.207C279.417 278.579 280.045 277.228 282.087 277.191ZM314.647 283.823L310.476 283.071L307.664 279.409L307.623 282.65L303.569 282.19L307.715 284.945L308.022 288.322L310.625 286.784L314.868 289.332L312.331 285.626L314.647 283.823ZM321.204 298.39C322.177 298.372 322.954 298.094 323.349 297.547C324.251 296.296 322.814 294.109 320.139 292.662C318.634 291.849 317.059 291.443 315.808 291.466C314.835 291.484 314.057 291.762 313.663 292.309C312.761 293.56 314.198 295.747 316.873 297.194C318.377 298.007 319.953 298.413 321.204 298.39ZM301.249 299.626L313.145 299.406L300.801 291.302L301.249 299.626ZM294.169 289.304L303.991 289.122L297.894 281.291L288.072 281.473L294.169 289.304Z" fill="#FCCF32"/>
<path d="M277.692 283.357C277.054 284.765 276.416 286.173 275.779 287.582C275.51 288.176 275.686 288.982 276.372 289.864L278.286 285.638C277.6 284.757 277.423 283.95 277.692 283.357ZM327.938 312.614L329.851 308.389C329.579 308.991 328.849 309.374 327.729 309.394L325.816 313.619C326.936 313.599 327.665 313.216 327.938 312.614Z" fill="#FCCF32"/>
<path d="M278.286 285.639L276.373 289.864L292.81 310.973L294.723 306.748L278.286 285.639ZM301.254 309.885L299.34 314.111L325.816 313.62L327.73 309.395C318.905 309.558 310.079 309.722 301.254 309.885ZM294.723 306.748L292.81 310.973C294.191 312.747 297.115 314.152 299.34 314.111L301.254 309.885C299.029 309.927 296.105 308.522 294.723 306.748Z" fill="#FCCF32"/>
<path d="M274.277 290.832C273.639 292.241 273.001 293.649 272.364 295.057C272.095 295.651 272.271 296.458 272.957 297.339L274.871 293.114C274.185 292.233 274.008 291.426 274.277 290.832ZM324.523 320.09L326.436 315.865C326.164 316.466 325.434 316.849 324.314 316.87L322.401 321.095C323.521 321.074 324.25 320.691 324.523 320.09Z" fill="#FCCF32"/>
<path d="M274.871 293.114L272.958 297.339L289.395 318.448L291.309 314.223L274.871 293.114ZM297.839 317.361L295.925 321.586L322.401 321.095L324.315 316.87L297.839 317.361ZM291.309 314.223L289.395 318.448C290.777 320.223 293.7 321.627 295.925 321.586L297.839 317.361C295.614 317.402 292.69 315.997 291.309 314.223Z" fill="#FCCF32"/>
<path d="M280.14 278.113L278.97 280.699C278.965 280.71 278.96 280.721 278.955 280.732L280.126 278.146C280.131 278.135 280.136 278.124 280.14 278.113Z" fill="#FCCF32"/>
<path d="M280.126 278.146L278.955 280.731C278.925 280.804 278.902 280.879 278.886 280.957L280.057 278.371C280.073 278.293 280.096 278.218 280.126 278.146ZM280.057 278.371L278.886 280.957C278.87 281.035 278.861 281.116 278.86 281.198L280.03 278.612C280.032 278.53 280.041 278.45 280.057 278.371Z" fill="#FCCF32"/>
<path d="M280.031 278.612L278.86 281.198C278.858 281.285 278.864 281.374 278.877 281.462L280.048 278.877C280.035 278.788 280.029 278.7 280.031 278.612Z" fill="#FCCF32"/>
<path d="M280.048 278.876C279.658 279.738 279.267 280.6 278.877 281.462C278.892 281.563 278.915 281.664 278.946 281.764L280.117 279.179C280.086 279.079 280.063 278.978 280.048 278.876ZM280.117 279.179L278.947 281.764C278.986 281.891 279.037 282.016 279.097 282.137L280.268 279.552C280.207 279.43 280.157 279.305 280.117 279.179Z" fill="#FCCF32"/>
<path d="M280.268 279.552L279.097 282.137C279.193 282.333 279.319 282.535 279.475 282.742L280.646 280.156C280.489 279.949 280.364 279.747 280.268 279.552Z" fill="#FCCF32"/>
<path d="M280.646 280.156C280.255 281.018 279.865 281.88 279.475 282.742C279.488 282.759 279.501 282.776 279.514 282.793L280.685 280.208C280.672 280.19 280.659 280.173 280.646 280.156Z" fill="#FCCF32"/>
<path d="M330.35 304.07L329.179 306.656C330.207 306.637 330.877 306.285 331.127 305.733L332.298 303.147C332.048 303.7 331.378 304.051 330.35 304.07Z" fill="#FCCF32"/>
<path d="M280.686 280.208L279.515 282.793L296.242 304.275L297.413 301.69C291.837 294.529 286.262 287.368 280.686 280.208Z" fill="#FCCF32"/>
<path d="M303.407 304.569L302.236 307.155L329.179 306.655L330.35 304.07L303.407 304.569Z" fill="#FCCF32"/>
<path d="M297.413 301.689L296.242 304.275C296.459 304.554 296.718 304.823 297.008 305.077L298.179 302.492C297.889 302.238 297.63 301.969 297.413 301.689ZM298.179 302.492L297.008 305.077C297.232 305.274 297.475 305.461 297.731 305.637L298.902 303.052C298.65 302.879 298.408 302.692 298.179 302.492Z" fill="#FCCF32"/>
<path d="M298.903 303.052L297.732 305.637C297.896 305.751 298.067 305.859 298.242 305.963L299.413 303.377C299.238 303.274 299.067 303.165 298.903 303.052ZM299.413 303.377L298.242 305.963C298.392 306.051 298.544 306.136 298.7 306.216L299.871 303.63C299.716 303.55 299.563 303.466 299.413 303.377Z" fill="#FCCF32"/>
<path d="M299.87 303.63L298.699 306.216C298.842 306.289 298.987 306.36 299.133 306.426L300.304 303.841C300.158 303.774 300.013 303.704 299.87 303.63ZM300.304 303.841L299.133 306.426C299.273 306.49 299.416 306.55 299.559 306.607L300.73 304.022C300.587 303.965 300.445 303.905 300.304 303.841Z" fill="#FCCF32"/>
<path d="M300.73 304.022L299.559 306.607C299.701 306.664 299.845 306.716 299.989 306.765L301.16 304.18C301.016 304.131 300.873 304.078 300.73 304.022Z" fill="#FCCF32"/>
<path d="M301.16 304.179L299.989 306.765C300.138 306.815 300.288 306.861 300.438 306.903L301.609 304.318C301.46 304.276 301.31 304.23 301.16 304.179Z" fill="#FCCF32"/>
<path d="M301.61 304.318L300.439 306.903C300.6 306.948 300.762 306.987 300.924 307.021L302.095 304.436C301.934 304.402 301.772 304.363 301.61 304.318ZM302.095 304.436L300.924 307.021C301.118 307.062 301.313 307.094 301.508 307.117L302.679 304.532C302.484 304.508 302.289 304.476 302.095 304.436Z" fill="#FCCF32"/>
<path d="M302.679 304.531C302.288 305.393 301.898 306.255 301.508 307.117C301.757 307.146 302.001 307.159 302.236 307.155L303.407 304.57C303.172 304.574 302.928 304.561 302.679 304.531Z" fill="#FCCF32"/>
<path d="M282.087 277.191L309.031 276.691C311.074 276.653 313.757 277.942 315.025 279.571L331.752 301.053C333.021 302.681 332.393 304.032 330.35 304.07L303.407 304.57C301.364 304.607 298.681 303.318 297.413 301.69C291.837 294.529 286.261 287.368 280.685 280.207C279.417 278.579 280.045 277.228 282.087 277.191ZM314.647 283.823L310.476 283.071L307.664 279.409L307.623 282.65L303.569 282.19L307.715 284.945L308.022 288.322L310.625 286.784L314.868 289.332L312.331 285.626L314.647 283.823ZM321.204 298.39C322.177 298.372 322.954 298.094 323.349 297.547C324.251 296.296 322.814 294.109 320.139 292.662C318.634 291.849 317.059 291.443 315.808 291.466C314.835 291.484 314.057 291.762 313.663 292.309C312.761 293.56 314.198 295.747 316.873 297.194C318.377 298.007 319.953 298.413 321.204 298.39ZM301.249 299.626L313.145 299.406L300.801 291.302L301.249 299.626ZM294.169 289.304L303.991 289.122L297.894 281.291L288.072 281.473L294.169 289.304Z" fill="#FCCF32"/>
</g>
<path fill-rule="evenodd" clip-rule="evenodd" d="M273.416 315.402C275.071 314.734 276.953 315.533 277.62 317.188C278.188 318.596 280.006 322.016 282.387 324.094C285.103 326.465 286.597 327.379 287.885 327.914C288.866 328.32 289.722 328.528 291.05 328.851C291.738 329.018 292.553 329.216 293.577 329.489C295.301 329.947 296.326 331.717 295.866 333.441C295.406 335.166 293.636 336.192 291.912 335.734C291.282 335.566 290.658 335.414 290.042 335.263C288.424 334.868 286.865 334.488 285.406 333.883C283.191 332.964 281.088 331.54 278.136 328.964C274.69 325.955 272.391 321.501 271.627 319.608C270.961 317.954 271.762 316.071 273.416 315.402Z" fill="#FFFEE3"/>
<path d="M527 595.5C527 599.09 520.956 602 513.5 602C506.044 602 500 599.09 500 595.5C500 591.91 506.044 589 513.5 589C520.956 589 527 591.91 527 595.5Z" fill="#76B6F8"/>
<path fill-rule="evenodd" clip-rule="evenodd" d="M573.564 615.507C574.174 616.152 574.14 617.165 573.488 617.768C571.398 619.704 568.517 622.496 565.326 625.587C562.839 627.995 560.165 630.586 557.532 633.095C554.542 635.943 551.616 638.676 549.121 640.873C546.671 643.03 544.508 644.788 543.09 645.576C538.474 648.142 534.313 646.696 532.648 645.462C531.933 644.932 531.788 643.93 532.322 643.222C532.857 642.515 533.869 642.37 534.583 642.9C535.399 643.504 538.186 644.633 541.509 642.785C542.573 642.195 544.481 640.677 546.974 638.482C549.422 636.326 552.311 633.629 555.292 630.789C557.873 628.33 560.531 625.755 563.017 623.347C566.242 620.223 569.178 617.38 571.281 615.431C571.933 614.828 572.955 614.862 573.564 615.507Z" fill="#225083"/>
<path d="M536.1 233.144C530.845 232.068 528.009 227.353 529.395 226.237C531.292 225.026 546.114 226.422 554.52 223.824C565.029 220.577 589.767 226.244 574.88 231.594C559.993 236.944 542.667 234.49 536.1 233.144Z" fill="#1BA8EF"/>
<path d="M554.842 232.472C564.535 228.012 570.187 214.683 571.802 208.576C572.912 205.574 573.919 197.83 569.071 190.865C563.01 182.158 555.436 182.769 551.498 184.006C547.56 185.243 548.468 179.653 537.561 177.774C526.655 175.895 514.538 181.469 516.059 206.634C517.58 231.799 542.726 238.047 554.842 232.472Z" fill="#93E174"/>
<path fill-rule="evenodd" clip-rule="evenodd" d="M551.853 175.117C552.632 174.691 553.613 174.983 554.045 175.769C554.39 176.398 554.554 177.065 554.511 177.747C554.469 178.414 554.236 178.987 553.957 179.457C553.457 180.297 552.661 181.021 552.077 181.553C552.061 181.568 552.044 181.583 552.028 181.598C552.021 181.608 551.972 181.672 551.885 181.825C551.767 182.032 551.627 182.318 551.466 182.683C551.146 183.41 550.789 184.354 550.428 185.394C549.706 187.467 549 189.818 548.572 191.348C548.332 192.206 547.442 192.7 546.584 192.451C545.727 192.202 545.226 191.304 545.466 190.446C545.906 188.874 546.632 186.457 547.381 184.303C547.755 183.228 548.144 182.193 548.513 181.353C548.698 180.934 548.888 180.539 549.08 180.202C549.253 179.898 549.497 179.513 549.818 179.22C550.513 178.587 550.953 178.166 551.183 177.779C551.28 177.618 551.29 177.536 551.292 177.514C551.292 177.513 551.292 177.513 551.292 177.513C551.293 177.503 551.297 177.446 551.223 177.31C550.791 176.524 551.073 175.543 551.853 175.117Z" fill="#225083"/>
<path fill-rule="evenodd" clip-rule="evenodd" d="M531.547 184.163C531.815 183.313 532.721 182.849 533.571 183.127C535.73 183.832 539.16 185.213 542.531 187.093C545.862 188.952 549.336 191.408 551.371 194.332C551.883 195.068 551.708 196.075 550.979 196.582C550.25 197.09 549.244 196.904 548.732 196.168C547.131 193.869 544.191 191.708 540.983 189.918C537.814 188.149 534.579 186.849 532.598 186.203C531.749 185.925 531.278 185.012 531.547 184.163Z" fill="#225083"/>
<path d="M528.921 198.972C526.498 202.386 527.105 210.154 521.955 207.35C520.803 206.722 518.925 200.84 519.833 197.406C520.741 193.976 521.348 190.948 524.981 188.715C529.829 184.747 533.767 192.145 528.921 198.972Z" fill="white"/>
<path d="M522.665 212.608C521.072 214.057 521.653 217.451 524.021 220.525C527.177 224.624 527.692 221.741 529.004 218.01C529.408 216.859 529.191 212.183 527.879 211.445C526.154 210.474 523.57 211.784 522.665 212.608Z" fill="white"/>
<path fill-rule="evenodd" clip-rule="evenodd" d="M558.019 190.47C558.098 191.361 557.443 192.141 556.556 192.212C555.347 192.31 553.532 192.545 552.023 192.924C551.258 193.115 550.656 193.323 550.264 193.526C550.164 193.578 550.094 193.621 550.048 193.652C549.785 194.36 549.051 194.801 548.277 194.668C547.398 194.517 546.801 193.68 546.944 192.799C547.047 192.168 547.387 191.7 547.708 191.385C548.029 191.071 548.407 190.832 548.764 190.648C549.477 190.279 550.355 189.999 551.214 189.784C552.951 189.349 554.953 189.093 556.268 188.987C557.155 188.915 557.939 189.579 558.019 190.47Z" fill="#225083"/>
<path d="M759.453 374.935C759.453 394.122 743.512 409.676 723.849 409.676C704.185 409.676 688.244 394.122 688.244 374.935C688.244 355.747 704.185 340.193 723.849 340.193C743.512 340.193 759.453 355.747 759.453 374.935Z" fill="#93E174"/>
<path fill-rule="evenodd" clip-rule="evenodd" d="M725.535 340.232C724.976 340.206 724.414 340.193 723.849 340.193C716.255 340.193 709.216 342.513 703.436 346.466L703.634 346.51C704.412 346.684 705.19 346.859 705.967 347.039C706.157 347.089 706.361 347.047 706.518 346.924C707.366 346.336 708.261 345.817 709.192 345.375L709.304 345.321C712.891 343.614 716.892 343.033 720.772 343.656L720.936 343.682C722.196 343.888 723.429 344.221 724.616 344.677C728.808 346.273 732.285 349.285 734.453 353.198C734.514 353.351 734.645 353.466 734.807 353.506C735.716 353.704 736.625 353.908 737.533 354.112L737.534 354.112L737.537 354.113C737.985 354.213 738.433 354.314 738.882 354.414C738.957 354.423 739.032 354.427 739.108 354.424C738.482 352.754 737.665 351.164 736.671 349.688L736.697 349.673L736.76 349.636L736.81 349.607C736.821 349.602 736.831 349.596 736.841 349.592L736.958 349.536C738.472 348.808 739.779 347.791 740.964 346.605L741.056 346.514C741.475 346.093 741.862 345.642 742.214 345.165C740.898 344.391 739.528 343.698 738.108 343.092C736.768 344.105 735.604 345.343 734.674 346.757C734.656 346.783 734.637 346.808 734.618 346.831L734.561 346.899L734.536 346.93C734.361 346.768 734.189 346.606 734.019 346.445L733.678 346.122C733.281 345.748 732.885 345.38 732.468 345.036C731.747 344.436 730.991 343.878 730.204 343.366C729.421 342.866 728.61 342.412 727.773 342.006C727.285 341.766 726.783 341.552 726.277 341.342L725.624 341.071C725.478 341.01 725.333 340.949 725.188 340.887C725.31 340.672 725.426 340.453 725.535 340.232ZM690.319 363.221L690.39 363.236L690.618 363.283L690.778 363.314L690.976 363.352L691.11 363.377L691.265 363.403L691.332 363.413L691.417 363.425L691.463 363.429L691.499 363.432C691.51 363.432 691.519 363.432 691.526 363.432L692.744 358.455L697.156 359.444L696.803 360.886L696.629 361.598L696.542 361.954L696.455 362.313L696.277 363.029C696.159 363.507 696.042 363.986 695.936 364.469L699.5 365.268C699.504 365.259 699.512 365.238 699.521 365.208L699.544 365.132L699.573 365.031L699.608 364.903L699.648 364.751L699.695 364.576L699.773 364.273L699.962 363.535L700.146 362.804L700.392 361.816L700.613 360.922L700.938 359.601L701.222 358.439L701.639 356.716L701.858 355.805L702.176 354.473L702.346 353.747L702.464 353.241L702.584 352.717L702.639 352.468L702.669 352.332L702.692 352.22L702.709 352.135C702.718 352.088 702.722 352.058 702.721 352.049L699.161 351.251L698.441 354.195L698.295 354.789L698.224 355.075L698.014 355.925L697.984 355.923L697.966 355.921L697.923 355.915L697.844 355.903L697.749 355.887L697.556 355.852L697.327 355.806L697.067 355.753L696.782 355.693L696.479 355.627L695.97 355.514L695.582 355.425L695.2 355.337L694.954 355.279L694.555 355.182C692.805 357.649 691.373 360.348 690.319 363.221ZM732.736 379.005C731.524 380.07 730.208 381.009 728.808 381.809L728.998 382.062C730.581 384.132 731.55 386.61 731.8 389.222C731.88 389.864 731.822 390.517 731.629 391.14C731.584 391.279 731.524 391.413 731.45 391.54L731.417 391.594C731.172 392.014 730.655 392.19 730.213 392.005C729.922 391.898 729.651 391.746 729.41 391.553C729.043 391.252 728.709 390.913 728.416 390.541C726.906 388.557 725.961 386.197 725.677 383.704L725.658 383.539L725.631 383.325C724.441 383.774 723.223 384.136 721.984 384.408C720.754 384.665 719.508 384.827 718.257 384.891C716.988 384.948 715.719 384.908 714.46 384.771L714.455 384.862L714.451 384.945C714.449 384.972 714.448 384.997 714.448 385.023L714.448 385.061C714.463 386.678 714.204 388.291 713.682 389.833C713.39 390.807 712.961 391.738 712.408 392.597C712.159 392.948 711.889 393.283 711.599 393.602C711.483 393.725 711.351 393.831 711.206 393.917C710.566 394.331 709.956 394.199 709.592 393.545C709.449 393.282 709.34 393.001 709.268 392.71C709.055 391.879 709.05 391.026 709.106 390.169C709.195 389.003 709.416 387.848 709.765 386.727C709.993 385.951 710.296 385.197 710.668 384.477L710.738 384.342C710.773 384.278 710.806 384.212 710.837 384.146C710.84 384.138 710.841 384.129 710.84 384.117L710.838 384.064L710.838 384.046C707.221 383.015 703.928 381.113 701.247 378.504L701.063 378.742L701.029 378.787C699.666 380.621 697.901 382.122 695.874 383.17L695.765 383.226C695.213 383.515 694.616 383.701 694.002 383.775C693.711 383.822 693.414 383.788 693.145 383.677C692.853 383.554 692.648 383.291 692.598 382.98L692.593 382.945C692.525 382.502 692.642 382.085 692.796 381.678L692.836 381.573C693.092 380.962 693.429 380.387 693.837 379.864C695.073 378.203 696.634 376.809 698.423 375.769L698.569 375.685L698.586 375.675L698.641 375.642C698.666 375.619 698.689 375.594 698.709 375.568C697.63 374.067 696.736 372.441 696.045 370.722L696.087 370.727L696.228 370.745C696.27 370.751 696.308 370.756 696.346 370.765C696.752 370.855 697.158 370.947 697.563 371.038L697.57 371.039C698.24 371.19 698.91 371.34 699.581 371.488L700.39 371.666C700.573 371.701 700.729 371.817 700.814 371.981C701.884 373.78 703.245 375.386 704.843 376.735L704.955 376.829C706.691 378.3 708.694 379.429 710.861 380.157C716.756 382.101 722.401 381.429 727.795 378.141C728.044 377.972 728.353 377.92 728.64 377.999C729.266 378.148 729.894 378.29 730.522 378.431L731.779 378.71L732.407 378.851L732.732 378.924L732.736 379.005ZM732.217 358.648C732.298 358.666 732.378 358.685 732.457 358.704L732.693 358.762C732.85 358.8 733.005 358.835 733.161 358.861L733.278 358.879C733.678 358.933 733.925 359.13 734.148 359.446C735.121 360.82 736.105 362.187 737.09 363.554L737.404 363.99L738.082 364.931L738.159 365.036L738.276 365.193L738.484 365.09C738.528 365.068 738.572 365.046 738.615 365.023C740.69 363.914 742.764 362.803 744.837 361.69C745.005 361.587 745.208 361.554 745.401 361.598L745.437 361.607C745.697 361.676 745.96 361.735 746.23 361.793L746.555 361.864L746.721 361.9L743.492 375.096C743.486 375.097 743.479 375.097 743.47 375.096L743.438 375.094L743.398 375.089L743.35 375.082L743.293 375.074L743.195 375.057L742.998 375.021L742.767 374.976L742.507 374.924L742.112 374.84L741.755 374.763L741.396 374.683L741.162 374.629L740.88 374.563L740.668 374.512L740.52 374.476L740.383 374.441L740.219 374.398L740.112 374.369L740.022 374.343L739.971 374.327L739.928 374.313L739.91 374.306L739.881 374.295L741.516 367.612L741.454 367.564L737.135 369.878L734.308 365.975L734.233 365.984L734.095 366.542L733.823 367.657L733.619 368.489L732.592 372.686L729.01 371.883C729.01 371.871 729.016 371.829 729.03 371.76L729.049 371.664L729.075 371.543L729.125 371.318L729.186 371.043L729.287 370.606L729.437 369.959L729.727 368.732L730.018 367.514L730.376 366.023L730.793 364.305L731.066 363.185L731.411 361.784L731.608 360.991L731.819 360.152L731.967 359.568L732.066 359.189L732.126 358.963L732.16 358.841L732.187 358.744L732.209 358.673L732.217 358.648ZM703.756 366.217L706.979 353.045C706.986 353.044 706.999 353.045 707.02 353.048L707.068 353.055L707.099 353.06L707.214 353.08L707.364 353.108L707.544 353.143L707.83 353.201L708.161 353.269L708.532 353.347L709.484 353.55L709.946 353.65L711.033 353.889L711.892 354.079L712.844 354.293L713.616 354.469L714.21 354.606L714.64 354.707L715.002 354.795L715.124 354.825L715.282 354.865L715.406 354.898L715.47 354.916L715.517 354.931L715.534 354.936L714.847 357.744C714.81 357.738 714.773 357.733 714.736 357.728C714.654 357.717 714.571 357.706 714.49 357.688L712.399 357.221L709.921 356.664L709.387 358.848L713.741 359.824L713.031 362.729L708.715 361.761C708.704 361.781 708.69 361.811 708.675 361.851L708.656 361.902L708.635 361.962L708.601 362.066L708.577 362.143L708.539 362.269L708.5 362.407L708.445 362.603L708.404 362.758L708.362 362.917L708.308 363.13L708.245 363.394L708.209 363.546L708.187 363.644L708.167 363.738L708.139 363.87L708.115 363.991L708.102 364.064L708.091 364.13L708.083 364.188L708.079 364.214C708.113 364.224 708.148 364.235 708.183 364.246C708.26 364.27 708.34 364.295 708.421 364.313L710.511 364.783L712.99 365.339L712.306 368.134L703.756 366.217ZM716.384 369.054C716.385 369.039 716.39 369.005 716.401 368.953L716.42 368.861L716.445 368.743L716.476 368.601L716.535 368.344L716.606 368.038L716.78 367.295L716.955 366.562L717.235 365.399L717.638 363.743L718.159 361.622L718.577 359.934L718.919 358.564L719.146 357.664L719.309 357.025L719.42 356.598L719.467 356.416L719.529 356.186L719.562 356.063L719.59 355.966L719.611 355.895C719.62 355.867 719.626 355.849 719.63 355.842L723.177 356.637L720.794 366.377L720.902 366.407L721 366.436L721.092 366.461C721.123 366.469 721.153 366.477 721.183 366.484L723.288 366.957L725.774 367.514L724.929 370.97L716.384 369.054Z" fill="#57B333"/>
<path fill-rule="evenodd" clip-rule="evenodd" d="M696.753 380.406C698.462 379.876 700.268 380.825 700.787 382.526C701.153 383.726 702.651 387.077 705.248 389.507C708.154 392.224 709.92 393.468 711.608 394.346C712.856 394.994 714.043 395.447 715.729 396.091C716.547 396.402 717.481 396.759 718.597 397.204C720.251 397.865 721.045 399.742 720.371 401.397C719.697 403.052 717.809 403.858 716.154 403.198C715.319 402.864 714.522 402.56 713.759 402.268C711.865 401.545 710.173 400.899 708.586 400.074C706.193 398.831 703.949 397.171 700.804 394.23C697.182 390.842 695.195 386.41 694.596 384.446C694.078 382.745 695.043 380.936 696.753 380.406Z" fill="white" fill-opacity="0.5"/>
<path d="M759.453 374.935C759.453 394.122 743.512 409.676 723.849 409.676C704.185 409.676 688.244 394.122 688.244 374.935C688.244 355.747 704.185 340.193 723.849 340.193C743.512 340.193 759.453 355.747 759.453 374.935Z" fill="#93E174"/>
<path fill-rule="evenodd" clip-rule="evenodd" d="M725.535 340.232C724.976 340.206 724.414 340.193 723.849 340.193C716.255 340.193 709.216 342.513 703.436 346.466L703.634 346.51C704.412 346.684 705.19 346.859 705.967 347.039C706.157 347.089 706.361 347.047 706.518 346.924C707.366 346.336 708.261 345.817 709.192 345.375L709.304 345.321C712.891 343.614 716.892 343.033 720.772 343.656L720.936 343.682C722.196 343.888 723.429 344.221 724.616 344.677C728.808 346.273 732.285 349.285 734.453 353.198C734.514 353.351 734.645 353.466 734.807 353.506C735.716 353.704 736.625 353.908 737.533 354.112L737.534 354.112L737.537 354.113C737.985 354.213 738.433 354.314 738.882 354.414C738.957 354.423 739.032 354.427 739.108 354.424C738.482 352.754 737.665 351.164 736.671 349.688L736.697 349.673L736.76 349.636L736.81 349.607C736.821 349.602 736.831 349.596 736.841 349.592L736.958 349.536C738.472 348.808 739.779 347.791 740.964 346.605L741.056 346.514C741.475 346.093 741.862 345.642 742.214 345.165C740.898 344.391 739.528 343.698 738.108 343.092C736.768 344.105 735.604 345.343 734.674 346.757C734.656 346.783 734.637 346.808 734.618 346.831L734.561 346.899L734.536 346.93C734.361 346.768 734.189 346.606 734.019 346.445L733.678 346.122C733.281 345.748 732.885 345.38 732.468 345.036C731.747 344.436 730.991 343.878 730.204 343.366C729.421 342.866 728.61 342.412 727.773 342.006C727.285 341.766 726.783 341.552 726.277 341.342L725.624 341.071C725.478 341.01 725.333 340.949 725.188 340.887C725.31 340.672 725.426 340.453 725.535 340.232ZM690.319 363.221L690.39 363.236L690.618 363.283L690.778 363.314L690.976 363.352L691.11 363.377L691.265 363.403L691.332 363.413L691.417 363.425L691.463 363.429L691.499 363.432C691.51 363.432 691.519 363.432 691.526 363.432L692.744 358.455L697.156 359.444L696.803 360.886L696.629 361.598L696.542 361.954L696.455 362.313L696.277 363.029C696.159 363.507 696.042 363.986 695.936 364.469L699.5 365.268C699.504 365.259 699.512 365.238 699.521 365.208L699.544 365.132L699.573 365.031L699.608 364.903L699.648 364.751L699.695 364.576L699.773 364.273L699.962 363.535L700.146 362.804L700.392 361.816L700.613 360.922L700.938 359.601L701.222 358.439L701.639 356.716L701.858 355.805L702.176 354.473L702.346 353.747L702.464 353.241L702.584 352.717L702.639 352.468L702.669 352.332L702.692 352.22L702.709 352.135C702.718 352.088 702.722 352.058 702.721 352.049L699.161 351.251L698.441 354.195L698.295 354.789L698.224 355.075L698.014 355.925L697.984 355.923L697.966 355.921L697.923 355.915L697.844 355.903L697.749 355.887L697.556 355.852L697.327 355.806L697.067 355.753L696.782 355.693L696.479 355.627L695.97 355.514L695.582 355.425L695.2 355.337L694.954 355.279L694.555 355.182C692.805 357.649 691.373 360.348 690.319 363.221ZM732.736 379.005C731.524 380.07 730.208 381.009 728.808 381.809L728.998 382.062C730.581 384.132 731.55 386.61 731.8 389.222C731.88 389.864 731.822 390.517 731.629 391.14C731.584 391.279 731.524 391.413 731.45 391.54L731.417 391.594C731.172 392.014 730.655 392.19 730.213 392.005C729.922 391.898 729.651 391.746 729.41 391.553C729.043 391.252 728.709 390.913 728.416 390.541C726.906 388.557 725.961 386.197 725.677 383.704L725.658 383.539L725.631 383.325C724.441 383.774 723.223 384.136 721.984 384.408C720.754 384.665 719.508 384.827 718.257 384.891C716.988 384.948 715.719 384.908 714.46 384.771L714.455 384.862L714.451 384.945C714.449 384.972 714.448 384.997 714.448 385.023L714.448 385.061C714.463 386.678 714.204 388.291 713.682 389.833C713.39 390.807 712.961 391.738 712.408 392.597C712.159 392.948 711.889 393.283 711.599 393.602C711.483 393.725 711.351 393.831 711.206 393.917C710.566 394.331 709.956 394.199 709.592 393.545C709.449 393.282 709.34 393.001 709.268 392.71C709.055 391.879 709.05 391.026 709.106 390.169C709.195 389.003 709.416 387.848 709.765 386.727C709.993 385.951 710.296 385.197 710.668 384.477L710.738 384.342C710.773 384.278 710.806 384.212 710.837 384.146C710.84 384.138 710.841 384.129 710.84 384.117L710.838 384.064L710.838 384.046C707.221 383.015 703.928 381.113 701.247 378.504L701.063 378.742L701.029 378.787C699.666 380.621 697.901 382.122 695.874 383.17L695.765 383.226C695.213 383.515 694.616 383.701 694.002 383.775C693.711 383.822 693.414 383.788 693.145 383.677C692.853 383.554 692.648 383.291 692.598 382.98L692.593 382.945C692.525 382.502 692.642 382.085 692.796 381.678L692.836 381.573C693.092 380.962 693.429 380.387 693.837 379.864C695.073 378.203 696.634 376.809 698.423 375.769L698.569 375.685L698.586 375.675L698.641 375.642C698.666 375.619 698.689 375.594 698.709 375.568C697.63 374.067 696.736 372.441 696.045 370.722L696.087 370.727L696.228 370.745C696.27 370.751 696.308 370.756 696.346 370.765C696.752 370.855 697.158 370.947 697.563 371.038L697.57 371.039C698.24 371.19 698.91 371.34 699.581 371.488L700.39 371.666C700.573 371.701 700.729 371.817 700.814 371.981C701.884 373.78 703.245 375.386 704.843 376.735L704.955 376.829C706.691 378.3 708.694 379.429 710.861 380.157C716.756 382.101 722.401 381.429 727.795 378.141C728.044 377.972 728.353 377.92 728.64 377.999C729.266 378.148 729.894 378.29 730.522 378.431L731.779 378.71L732.407 378.851L732.732 378.924L732.736 379.005ZM732.217 358.648C732.298 358.666 732.378 358.685 732.457 358.704L732.693 358.762C732.85 358.8 733.005 358.835 733.161 358.861L733.278 358.879C733.678 358.933 733.925 359.13 734.148 359.446C735.121 360.82 736.105 362.187 737.09 363.554L737.404 363.99L738.082 364.931L738.159 365.036L738.276 365.193L738.484 365.09C738.528 365.068 738.572 365.046 738.615 365.023C740.69 363.914 742.764 362.803 744.837 361.69C745.005 361.587 745.208 361.554 745.401 361.598L745.437 361.607C745.697 361.676 745.96 361.735 746.23 361.793L746.555 361.864L746.721 361.9L743.492 375.096C743.486 375.097 743.479 375.097 743.47 375.096L743.438 375.094L743.398 375.089L743.35 375.082L743.293 375.074L743.195 375.057L742.998 375.021L742.767 374.976L742.507 374.924L742.112 374.84L741.755 374.763L741.396 374.683L741.162 374.629L740.88 374.563L740.668 374.512L740.52 374.476L740.383 374.441L740.219 374.398L740.112 374.369L740.022 374.343L739.971 374.327L739.928 374.313L739.91 374.306L739.881 374.295L741.516 367.612L741.454 367.564L737.135 369.878L734.308 365.975L734.233 365.984L734.095 366.542L733.823 367.657L733.619 368.489L732.592 372.686L729.01 371.883C729.01 371.871 729.016 371.829 729.03 371.76L729.049 371.664L729.075 371.543L729.125 371.318L729.186 371.043L729.287 370.606L729.437 369.959L729.727 368.732L730.018 367.514L730.376 366.023L730.793 364.305L731.066 363.185L731.411 361.784L731.608 360.991L731.819 360.152L731.967 359.568L732.066 359.189L732.126 358.963L732.16 358.841L732.187 358.744L732.209 358.673L732.217 358.648ZM703.756 366.217L706.979 353.045C706.986 353.044 706.999 353.045 707.02 353.048L707.068 353.055L707.099 353.06L707.214 353.08L707.364 353.108L707.544 353.143L707.83 353.201L708.161 353.269L708.532 353.347L709.484 353.55L709.946 353.65L711.033 353.889L711.892 354.079L712.844 354.293L713.616 354.469L714.21 354.606L714.64 354.707L715.002 354.795L715.124 354.825L715.282 354.865L715.406 354.898L715.47 354.916L715.517 354.931L715.534 354.936L714.847 357.744C714.81 357.738 714.773 357.733 714.736 357.728C714.654 357.717 714.571 357.706 714.49 357.688L712.399 357.221L709.921 356.664L709.387 358.848L713.741 359.824L713.031 362.729L708.715 361.761C708.704 361.781 708.69 361.811 708.675 361.851L708.656 361.902L708.635 361.962L708.601 362.066L708.577 362.143L708.539 362.269L708.5 362.407L708.445 362.603L708.404 362.758L708.362 362.917L708.308 363.13L708.245 363.394L708.209 363.546L708.187 363.644L708.167 363.738L708.139 363.87L708.115 363.991L708.102 364.064L708.091 364.13L708.083 364.188L708.079 364.214C708.113 364.224 708.148 364.235 708.183 364.246C708.26 364.27 708.34 364.295 708.421 364.313L710.511 364.783L712.99 365.339L712.306 368.134L703.756 366.217ZM716.384 369.054C716.385 369.039 716.39 369.005 716.401 368.953L716.42 368.861L716.445 368.743L716.476 368.601L716.535 368.344L716.606 368.038L716.78 367.295L716.955 366.562L717.235 365.399L717.638 363.743L718.159 361.622L718.577 359.934L718.919 358.564L719.146 357.664L719.309 357.025L719.42 356.598L719.467 356.416L719.529 356.186L719.562 356.063L719.59 355.966L719.611 355.895C719.62 355.867 719.626 355.849 719.63 355.842L723.177 356.637L720.794 366.377L720.902 366.407L721 366.436L721.092 366.461C721.123 366.469 721.153 366.477 721.183 366.484L723.288 366.957L725.774 367.514L724.929 370.97L716.384 369.054Z" fill="#57B333"/>
<path fill-rule="evenodd" clip-rule="evenodd" d="M696.753 380.406C698.462 379.876 700.268 380.825 700.787 382.526C701.153 383.726 702.651 387.077 705.248 389.507C708.154 392.224 709.92 393.468 711.608 394.346C712.856 394.994 714.043 395.447 715.729 396.091C716.547 396.402 717.481 396.759 718.597 397.204C720.251 397.865 721.045 399.742 720.371 401.397C719.697 403.052 717.809 403.858 716.154 403.198C715.319 402.864 714.522 402.56 713.759 402.268C711.865 401.545 710.173 400.899 708.586 400.074C706.193 398.831 703.949 397.171 700.804 394.23C697.182 390.842 695.195 386.41 694.596 384.446C694.078 382.745 695.043 380.936 696.753 380.406Z" fill="white" fill-opacity="0.5"/>
<path fill-rule="evenodd" clip-rule="evenodd" d="M388.304 621.2C388.748 619.475 390.511 618.438 392.241 618.886L404.975 622.177C406.705 622.624 407.747 624.385 407.302 626.11C406.858 627.836 405.095 628.872 403.365 628.425L390.631 625.134C388.901 624.687 387.859 622.926 388.304 621.2Z" fill="white"/>
<path fill-rule="evenodd" clip-rule="evenodd" d="M385.77 650.593C385.151 648.923 386.008 647.068 387.685 646.448L395.494 643.563C397.171 642.944 399.032 643.796 399.651 645.466C400.27 647.136 399.412 648.991 397.736 649.611L389.926 652.496C388.25 653.115 386.389 652.263 385.77 650.593ZM405.869 673.543C404.477 672.428 404.258 670.398 405.379 669.009L412.948 659.63C414.069 658.241 416.106 658.019 417.499 659.134C418.891 660.249 419.11 662.279 417.989 663.668L410.42 673.047C409.299 674.436 407.262 674.658 405.869 673.543Z" fill="white"/>
<path fill-rule="evenodd" clip-rule="evenodd" d="M356.3 72.6501C357.736 71.5732 359.773 71.8642 360.85 73.3001C362.792 75.8893 364.332 80.0813 365.458 83.8393C366.624 87.7316 367.496 91.6859 367.947 94.1681C368.268 95.9341 367.097 97.6259 365.331 97.947C363.565 98.2681 361.873 97.0968 361.552 95.3309C361.137 93.0466 360.319 89.3311 359.232 85.7053C358.105 81.9452 356.828 78.7708 355.65 77.2C354.573 75.7641 354.864 73.7271 356.3 72.6501Z" fill="#E98633"/>
<path fill-rule="evenodd" clip-rule="evenodd" d="M300.355 427.441C300.103 429.225 298.484 430.443 296.738 430.163C295.117 429.903 292.863 429.06 290.968 428.277C288.969 427.452 286.989 426.533 285.762 425.931C284.164 425.148 283.474 423.195 284.22 421.569C284.966 419.943 286.866 419.26 288.464 420.043C289.59 420.596 291.443 421.456 293.293 422.219C295.245 423.025 296.856 423.578 297.652 423.706C299.397 423.986 300.607 425.658 300.355 427.441Z" fill="#E55F3D"/>
<path fill-rule="evenodd" clip-rule="evenodd" d="M653.289 153.64C651.532 153.613 650.125 152.123 650.147 150.313C650.186 147.14 651.499 143.213 652.847 139.932C654.246 136.524 655.907 133.292 657.027 131.325C657.915 129.765 659.865 129.246 661.382 130.164C662.898 131.083 663.407 133.093 662.519 134.653C661.517 136.412 659.986 139.389 658.71 142.498C657.381 145.733 656.534 148.629 656.512 150.412C656.49 152.222 655.047 153.667 653.289 153.64Z" fill="#ADD1F6"/>
<path fill-rule="evenodd" clip-rule="evenodd" d="M699.245 327.46C697.697 326.606 697.144 324.635 698.011 323.057C699.533 320.29 702.528 317.492 705.247 315.283C708.07 312.988 711.041 310.977 712.946 309.807C714.472 308.87 716.443 309.35 717.349 310.88C718.254 312.409 717.751 314.409 716.225 315.346C714.528 316.388 711.798 318.235 709.23 320.322C706.557 322.495 704.468 324.605 703.618 326.15C702.751 327.728 700.793 328.314 699.245 327.46Z" fill="#FCCF32"/>
<path fill-rule="evenodd" clip-rule="evenodd" d="M749.687 527.749C748.515 527.128 748.078 525.657 748.709 524.463C749.579 522.82 751.265 521.225 752.714 520.022C754.241 518.754 755.846 517.648 756.883 517.002C758.023 516.291 759.504 516.641 760.191 517.783C760.878 518.925 760.511 520.427 759.371 521.138C758.494 521.685 757.073 522.663 755.741 523.769C754.332 524.938 753.327 526.006 752.952 526.714C752.32 527.907 750.858 528.371 749.687 527.749Z" fill="#225083"/>
<path d="M756.44 602.662C756.925 607.116 746.683 611.977 733.565 613.518C720.446 615.06 709.418 612.698 708.933 608.244C708.448 603.789 718.689 598.928 731.808 597.387C744.926 595.846 755.954 598.207 756.44 602.662Z" fill="#225083"/>
<path fill-rule="evenodd" clip-rule="evenodd" d="M749.039 565.849C747.607 567.446 747.036 568.645 746.942 569.155C746.59 571.055 744.764 572.311 742.863 571.96C740.963 571.608 739.707 569.782 740.058 567.881C740.504 565.471 742.105 563.097 743.829 561.175C745.641 559.155 747.981 557.201 750.516 555.672C753.025 554.158 755.932 552.936 758.868 552.628C761.878 552.312 765.11 552.959 767.666 555.444C769.168 556.905 769.692 558.805 769.394 560.686C769.133 562.328 768.28 563.8 767.404 564.993C765.632 567.407 762.762 569.996 759.735 572.5C757.704 574.181 755.437 575.955 753.186 577.716C752.046 578.608 750.909 579.498 749.81 580.37C746.468 583.021 743.408 585.56 741.115 587.881C739.756 589.256 737.54 589.269 736.165 587.911C734.79 586.552 734.777 584.336 736.135 582.961C738.752 580.313 742.104 577.548 745.46 574.886C746.644 573.946 747.823 573.024 748.982 572.117C751.182 570.396 753.311 568.73 755.272 567.107C758.3 564.602 760.554 562.495 761.762 560.851C761.992 560.536 762.159 560.273 762.275 560.059C761.623 559.649 760.771 559.466 759.599 559.589C758.018 559.755 756.104 560.476 754.132 561.666C752.185 562.84 750.383 564.351 749.039 565.849Z" fill="white"/>
<path fill-rule="evenodd" clip-rule="evenodd" d="M758.32 545.775C758.534 545.526 758.68 545.252 758.756 544.951C759.629 541.465 750.629 535.754 736.751 532.229C722.872 528.704 710.244 529.711 709.371 533.197C709.36 533.239 709.351 533.282 709.344 533.324L708.895 533.21L695.142 588.122C694.966 588.317 694.847 588.531 694.789 588.765C694.73 588.999 694.734 589.245 694.797 589.501L694.75 589.688L694.861 589.711C695.901 592.589 703.969 596.63 714.253 599.242C725.722 602.155 736.283 601.357 737.003 598.484L737.008 598.464L737.032 598.469L758.546 545.832L758.32 545.775Z" fill="white"/>
<path fill-rule="evenodd" clip-rule="evenodd" d="M756.591 553.621C757.352 553.948 757.705 554.829 757.379 555.591L754.379 562.591C754.052 563.352 753.171 563.705 752.409 563.379C751.648 563.052 751.295 562.171 751.621 561.409L754.621 554.409C754.948 553.648 755.829 553.295 756.591 553.621Z" fill="#225083"/>
<path fill-rule="evenodd" clip-rule="evenodd" d="M747.351 575.018C748.115 575.335 748.474 576.212 748.153 576.977L745.383 583.58C745.063 584.345 744.183 584.708 743.419 584.391C742.655 584.073 742.296 583.196 742.617 582.431L745.386 575.828C745.707 575.063 746.587 574.7 747.351 575.018Z" fill="#225083"/>
<ellipse rx="11.1784" ry="6.79614" transform="matrix(0.210676 -0.977556 0.977203 0.212309 710.246 565.16)" fill="#DBEDFF"/>
<path fill-rule="evenodd" clip-rule="evenodd" d="M817.04 665.805C817.429 654.291 836.053 645.034 858.963 645.055C881.873 645.077 900.481 654.37 900.849 665.885L900.856 665.885L900.777 753.454L900.776 753.454C900.77 759.499 882.002 764.382 858.856 764.36C835.709 764.338 816.949 759.419 816.955 753.374C816.955 753.342 816.955 753.309 816.956 753.277L817.034 666.283C817.034 666.243 817.034 666.203 817.034 666.163C817.034 666.124 817.034 666.084 817.034 666.044L817.035 665.805L817.04 665.805Z" fill="#4198F2"/>
<path d="M899.588 661.092C899.583 667.375 881.555 672.451 859.324 672.43C837.092 672.409 819.074 667.299 819.079 661.016C819.085 654.734 837.112 649.658 859.344 649.679C881.576 649.7 899.594 654.81 899.588 661.092Z" fill="#1670CD"/>
<path d="M871.391 594.854C887.705 621.616 869.058 655.94 857.695 669.757C854.335 655.268 826.845 648.259 826.809 629.899C826.764 606.95 812.841 567.106 810.807 549.233C808.773 531.359 826.358 504.781 823.762 518.974C822.991 523.194 850.998 561.402 871.391 594.854Z" fill="#67C43F"/>
<path d="M867.705 568.087C872.478 541.127 879.627 528.109 899.85 505.121C910.889 513.08 910.269 589.883 899.85 601.739C886.825 616.559 890.411 617.938 881.547 630.67C877.861 635.964 871.411 642.792 866.006 649.033C865.496 659.509 863.937 666.31 859.96 665.987C852.879 665.411 858.412 657.801 866.006 649.033C867.049 627.584 863.696 590.729 867.705 568.087Z" fill="#7FCD5D"/>
<path d="M830.554 619.843C849.906 634.793 855.308 644.004 864.873 670.04C853.815 675.869 793.111 643.957 788.173 630.537C782.002 613.762 779.367 616.148 773.067 603.651C766.766 591.153 751.706 592.157 776.132 589.687C787.318 588.556 806.363 601.155 830.554 619.843Z" fill="#7FCD5D"/>
<path d="M883.331 610.057C896.841 586.449 930.069 587.284 944.994 590.653C935.48 599.131 941.27 623.569 927.519 630.993C910.331 640.273 897.202 661.614 883.331 668.106C871.835 673.486 864.743 673.17 853.008 669.721C853.008 669.721 866.443 639.566 883.331 610.057Z" fill="#93E174"/>
<path fill-rule="evenodd" clip-rule="evenodd" d="M712.957 534.97C713.527 534.289 714.545 534.203 715.233 534.779C725.431 543.317 737.521 545.053 749.132 544.497C750.023 544.454 750.787 545.142 750.838 546.032C750.89 546.923 750.209 547.68 749.318 547.722C737.309 548.298 724.259 546.529 713.171 537.245C712.483 536.67 712.388 535.651 712.957 534.97Z" fill="#225083"/>
<path d="M750.341 546.056C738.147 546.64 725.161 544.71 714.144 535.028C720.177 536.866 739.505 531.424 742.46 533.221C748.909 537.141 736.011 539.1 750.341 546.056Z" fill="#225083"/>
<path fill-rule="evenodd" clip-rule="evenodd" d="M383.395 461.344C384.426 462.798 384.108 464.83 382.685 465.883C374.054 472.268 361.4 474.296 351.538 472.211C349.817 471.848 348.711 470.128 349.067 468.37C349.423 466.612 351.107 465.482 352.827 465.846C361.188 467.613 371.963 465.789 378.952 460.618C380.375 459.565 382.364 459.89 383.395 461.344Z" fill="#EEF9FF"/>
<path fill-rule="evenodd" clip-rule="evenodd" d="M510.467 564.362C511.458 565.75 511.028 567.609 509.508 568.514C504.206 571.67 496.597 572.622 490.685 571.617C488.901 571.313 487.724 569.747 488.056 568.118C488.388 566.489 490.104 565.414 491.888 565.718C496.43 566.49 502.262 565.665 505.92 563.487C507.44 562.582 509.476 562.974 510.467 564.362Z" fill="#EEF9FF"/>
<path fill-rule="evenodd" clip-rule="evenodd" d="M409.667 317.817C408.014 317.145 406.129 317.939 405.457 319.592C401.529 329.248 400.734 343.155 402.557 353.827C402.857 355.586 404.526 356.768 406.285 356.468C408.044 356.167 409.226 354.498 408.926 352.739C407.255 342.956 408.069 330.317 411.442 322.027C412.114 320.374 411.319 318.489 409.667 317.817Z" fill="#EEF9FF"/>
<path fill-rule="evenodd" clip-rule="evenodd" d="M558.288 299.228C559.393 300.655 559.189 302.755 557.834 303.918C553.547 307.595 547.339 308.742 542.449 307.544C540.746 307.126 539.687 305.334 540.083 303.541C540.48 301.748 542.182 300.633 543.885 301.05C547.055 301.827 551.211 300.999 553.833 298.749C555.189 297.586 557.184 297.801 558.288 299.228Z" fill="#BAE8FF"/>
<path d="M643.681 324L607 339.041C613.114 352.411 625.341 378.483 625.341 375.809C625.341 372.467 657.946 354.083 655.908 354.083C647.757 351.409 644.361 332.913 643.681 324Z" fill="#FDF55D"/>
<path fill-rule="evenodd" clip-rule="evenodd" d="M641.771 332.051C642.64 332.279 643.168 333.202 642.951 334.113L642.782 334.822C641.755 339.128 637.755 341.852 633.6 341.196C632.373 341.002 631.201 340.825 630.253 340.698C629.532 340.6 629.002 340.54 628.679 340.515C628.589 340.693 628.472 340.988 628.321 341.463C628.243 341.709 628.159 341.995 628.066 342.31C627.737 343.429 627.298 344.921 626.612 346.36C626.328 346.955 625.946 347.498 625.418 347.89C624.868 348.298 624.261 348.469 623.666 348.469C622.605 348.469 621.605 347.917 620.911 347.501C620.555 347.288 620.253 347.094 619.967 346.911C619.553 346.645 619.173 346.402 618.716 346.154C618.422 345.995 618.157 345.872 617.918 345.783C618.012 345.895 618.107 346.001 618.2 346.098C618.833 346.762 618.833 347.838 618.2 348.502C617.566 349.166 616.54 349.166 615.906 348.502C615.585 348.165 615.226 347.74 614.912 347.279C614.613 346.839 614.281 346.263 614.113 345.633C613.946 345.01 613.86 343.962 614.624 343.109C615.3 342.353 616.272 342.2 617.053 342.2C618.251 342.2 619.339 342.665 620.204 343.133C620.73 343.418 621.331 343.8 621.836 344.121C622.097 344.287 622.333 344.437 622.52 344.549C623.113 344.904 623.433 345.026 623.587 345.059C623.617 345.016 623.66 344.946 623.711 344.84C624.265 343.678 624.593 342.565 624.913 341.481C625.022 341.114 625.129 340.749 625.244 340.388C625.449 339.746 625.714 338.996 626.122 338.397C626.582 337.721 627.327 337.1 628.405 337.1C628.877 337.1 629.731 337.199 630.667 337.325C631.648 337.458 632.846 337.638 634.084 337.834C636.618 338.234 639.022 336.57 639.635 333.998L639.805 333.288C640.022 332.377 640.902 331.823 641.771 332.051Z" fill="#225083"/>
<path fill-rule="evenodd" clip-rule="evenodd" d="M644.831 341.968C645.226 342.832 644.906 343.883 644.115 344.315C643.668 344.56 642.986 345.01 642.443 345.521C642.172 345.776 641.983 346.002 641.873 346.179C641.831 346.247 641.809 346.292 641.799 346.316C641.791 346.964 641.654 347.761 641.474 348.521C641.28 349.34 641.004 350.244 640.67 351.096C640.343 351.932 639.928 352.798 639.431 353.487C639.001 354.081 638.185 355 637 355C636.086 355 635.249 354.649 634.617 354.288C633.968 353.917 633.408 353.461 633.012 353.086C632.927 353.005 632.85 352.92 632.779 352.83L631.931 354.221C631.441 355.025 630.448 355.242 629.713 354.706C628.977 354.17 628.779 353.083 629.269 352.279L630.892 349.617C632.166 347.526 635.049 348.339 635.371 350.675C635.583 350.852 635.835 351.035 636.099 351.186C636.378 351.346 636.614 351.436 636.796 351.475C636.829 351.437 636.87 351.386 636.919 351.318C637.172 350.968 637.457 350.412 637.729 349.717C637.996 349.037 638.22 348.301 638.376 347.643C638.54 346.953 638.6 346.466 638.6 346.25C638.6 345.418 638.911 344.718 639.227 344.21C639.55 343.691 639.961 343.239 640.357 342.867C641.147 342.124 642.065 341.524 642.684 341.185C643.475 340.753 644.436 341.103 644.831 341.968ZM636.694 351.577C636.694 351.576 636.697 351.573 636.705 351.568C636.697 351.575 636.694 351.577 636.694 351.577Z" fill="#225083"/>
<path d="M645.393 332.733L606.59 338.556C615.555 361.193 613.303 379.926 613.94 377.346C614.736 374.12 651.434 361.675 649.477 361.193C645.393 351.501 643.922 341.496 645.393 332.733Z" fill="#1BA8EF"/>
<path d="M643.756 324.04L607.479 338.992C613.525 352.282 625.618 378.199 625.618 375.541C625.618 372.218 657.864 353.944 655.849 353.944C647.787 351.285 644.428 332.9 643.756 324.04Z" fill="#FDF55D"/>
<path fill-rule="evenodd" clip-rule="evenodd" d="M641.792 332.165C642.658 332.381 643.184 333.258 642.968 334.124L642.799 334.798C641.776 338.89 637.791 341.478 633.653 340.854C632.431 340.67 631.263 340.502 630.319 340.381C629.601 340.289 629.073 340.231 628.752 340.207C628.662 340.377 628.546 340.657 628.395 341.108C628.317 341.342 628.233 341.613 628.141 341.913C627.813 342.976 627.376 344.394 626.692 345.762C626.41 346.327 626.029 346.842 625.503 347.215C624.956 347.603 624.351 347.765 623.758 347.765C622.702 347.765 621.705 347.241 621.013 346.846C620.659 346.643 620.358 346.459 620.074 346.285C619.661 346.032 619.283 345.801 618.828 345.566C618.534 345.414 618.271 345.298 618.032 345.213C618.126 345.319 618.221 345.42 618.313 345.512C618.944 346.143 618.944 347.166 618.313 347.797C617.682 348.428 616.66 348.428 616.029 347.797C615.708 347.476 615.352 347.072 615.039 346.634C614.74 346.216 614.41 345.669 614.242 345.071C614.077 344.479 613.991 343.482 614.751 342.672C615.425 341.954 616.393 341.809 617.171 341.809C618.364 341.809 619.448 342.25 620.31 342.695C620.834 342.966 621.432 343.329 621.936 343.634C622.196 343.792 622.43 343.934 622.616 344.041C623.207 344.378 623.526 344.494 623.679 344.525C623.71 344.484 623.752 344.418 623.803 344.317C624.355 343.213 624.682 342.155 625.001 341.125C625.109 340.776 625.216 340.43 625.33 340.086C625.534 339.476 625.798 338.764 626.204 338.194C626.663 337.553 627.405 336.963 628.478 336.963C628.948 336.963 629.799 337.057 630.731 337.177C631.709 337.302 632.903 337.474 634.135 337.66C636.659 338.04 639.054 336.459 639.665 334.014L639.834 333.34C640.05 332.475 640.927 331.948 641.792 332.165Z" fill="#225083"/>
<path fill-rule="evenodd" clip-rule="evenodd" d="M644.46 342.701C644.859 343.499 644.535 344.47 643.737 344.869C643.286 345.095 642.597 345.51 642.049 345.981C641.775 346.217 641.585 346.425 641.473 346.589C641.431 346.651 641.409 346.693 641.399 346.715C641.39 347.313 641.252 348.049 641.07 348.751C640.874 349.506 640.596 350.341 640.259 351.127C639.929 351.899 639.51 352.699 639.008 353.334C638.574 353.883 637.75 354.731 636.554 354.731C635.631 354.731 634.786 354.408 634.148 354.074C633.492 353.732 632.927 353.311 632.528 352.965C632.442 352.89 632.363 352.811 632.292 352.729L631.436 354.012C630.942 354.754 629.939 354.955 629.196 354.46C628.454 353.965 628.253 352.962 628.748 352.22L630.387 349.762C631.673 347.832 634.584 348.583 634.909 350.739C635.124 350.902 635.377 351.072 635.644 351.211C635.926 351.358 636.164 351.441 636.348 351.478C636.381 351.442 636.423 351.395 636.472 351.332C636.727 351.009 637.015 350.496 637.29 349.855C637.559 349.227 637.786 348.548 637.943 347.94C638.108 347.303 638.169 346.854 638.169 346.655C638.169 345.887 638.483 345.24 638.802 344.771C639.128 344.292 639.543 343.875 639.943 343.532C640.741 342.846 641.667 342.292 642.293 341.979C643.091 341.58 644.061 341.904 644.46 342.701ZM636.244 351.571C636.244 351.571 636.248 351.568 636.256 351.564C636.248 351.57 636.244 351.572 636.244 351.571Z" fill="#225083"/>
<path d="M659.168 595.415L636.554 595.415C613.716 607.806 613.659 607.591 607.478 609.953C604.635 611.04 628.613 614.38 641.4 616.415C641.4 614.799 652.707 601.877 659.168 595.415Z" fill="#225083"/>
<path d="M659.169 595.414L640.907 617.101C628.041 610.197 603.21 601.702 605.863 601.876C609.178 602.094 626.184 589.052 631.708 587.339C638.169 593.8 650.372 594.164 659.169 595.414Z" fill="#FDF55D"/>
<path fill-rule="evenodd" clip-rule="evenodd" d="M643.734 603.769C642.997 603.557 641.967 603.261 640.893 603.125C640.423 603.065 639.901 603.076 639.392 603.266C638.849 603.468 638.437 603.831 638.163 604.274C637.696 605.027 637.686 605.938 637.687 606.438C637.688 606.665 637.693 606.854 637.698 607.025C637.364 606.873 636.976 606.834 636.595 606.942C635.736 607.184 635.236 608.076 635.478 608.935C635.63 609.471 635.976 610.445 636.6 611.095C636.926 611.436 637.608 611.964 638.564 611.816C639.462 611.676 640.009 611.019 640.312 610.53C640.804 609.736 640.912 608.851 640.939 608.192C640.956 607.792 640.94 607.271 640.928 606.874C640.923 606.691 640.918 606.534 640.918 606.427C640.918 606.416 640.918 606.405 640.918 606.395C641.541 606.504 642.107 606.666 642.683 606.831C642.931 606.902 643.181 606.974 643.438 607.042C643.864 607.155 644.428 607.289 644.974 607.276C645.589 607.262 646.434 607.041 646.957 606.198C647.363 605.542 647.386 604.877 647.397 604.51C647.399 604.436 647.401 604.366 647.402 604.299C647.409 603.998 647.414 603.762 647.469 603.442C647.536 603.053 647.804 602.604 648.34 602.068L650.62 599.788C651.25 599.157 651.25 598.135 650.62 597.504C649.989 596.873 648.966 596.873 648.335 597.504L646.056 599.783C645.338 600.502 644.519 601.534 644.285 602.894C644.22 603.274 644.193 603.617 644.181 603.896C644.049 603.86 643.899 603.817 643.734 603.769ZM637.519 608.895C637.52 608.895 637.524 608.89 637.534 608.877C637.524 608.888 637.519 608.894 637.519 608.895Z" fill="#225083"/>
<path fill-rule="evenodd" clip-rule="evenodd" d="M640.929 594.275C640.3 593.643 639.277 593.641 638.645 594.27C638.326 594.589 637.828 595.039 637.386 595.361C637.311 595.416 637.244 595.462 637.187 595.499C636.894 595.427 636.616 595.4 636.407 595.389C635.941 595.364 635.418 595.397 634.899 595.492C633.969 595.662 632.558 596.125 631.801 597.345C631.135 598.419 630.812 599.697 630.682 600.426C630.636 600.681 630.639 600.93 630.681 601.166L629.466 601.677C628.644 602.023 628.258 602.971 628.604 603.793C628.95 604.615 629.897 605.001 630.719 604.655L633.063 603.669C634.396 603.108 634.746 601.497 633.987 600.434C634.111 599.969 634.298 599.449 634.547 599.048C634.546 599.049 634.546 599.049 634.546 599.049C634.546 599.049 634.593 598.985 634.764 598.897C634.945 598.804 635.193 598.722 635.479 598.67C635.764 598.618 636.033 598.604 636.232 598.615C636.292 598.618 636.337 598.623 636.368 598.628C636.791 598.839 637.204 598.843 637.474 598.813C637.778 598.778 638.042 598.684 638.232 598.601C638.614 598.436 638.985 598.193 639.287 597.973C639.908 597.521 640.535 596.948 640.925 596.559C641.557 595.93 641.559 594.907 640.929 594.275ZM636.942 595.639C636.942 595.639 636.944 595.638 636.948 595.637C636.944 595.638 636.942 595.639 636.942 595.639Z" fill="#225083"/>
<path d="M798.262 452L835.597 464.148C838.222 474.312 825.934 494.215 823.785 493.999C812.266 492.841 781.024 480.874 783.099 480.874C788.348 470.375 798.262 459.875 798.262 452Z" fill="#FDF55D"/>
<path fill-rule="evenodd" clip-rule="evenodd" d="M800.988 458.334C800.137 458.602 799.664 459.509 799.932 460.36L799.955 460.432C800.438 461.969 801.245 463.573 802.968 463.951C803.772 464.127 804.549 463.971 805.219 463.723C805.799 463.508 806.394 463.188 806.996 462.813C808.472 462.925 810.388 463.908 812.305 465.411C814.289 466.967 815.927 468.803 816.632 469.923C816.954 470.434 817.37 470.868 817.901 471.167C818.435 471.468 818.994 471.58 819.522 471.58C820.498 471.58 821.453 471.19 822.178 470.861C822.531 470.701 822.836 470.553 823.128 470.411C823.555 470.204 823.952 470.011 824.421 469.818C825.143 469.522 825.743 469.365 826.262 469.365C826.513 469.365 826.956 469.483 827.553 469.837C828.124 470.175 828.707 470.652 829.201 471.166C829.669 471.653 829.99 472.103 830.152 472.418C829.953 472.934 830.025 473.539 830.394 474.004C830.949 474.703 831.965 474.819 832.664 474.264C833.306 473.754 833.481 473.037 833.467 472.482C833.454 471.968 833.288 471.496 833.117 471.129C832.769 470.379 832.181 469.604 831.53 468.927C830.867 468.238 830.06 467.566 829.199 467.057C828.364 466.563 827.333 466.134 826.262 466.134C825.129 466.134 824.075 466.469 823.196 466.829C822.664 467.047 822.066 467.335 821.555 467.582C821.286 467.711 821.041 467.829 820.843 467.919C820.123 468.246 819.734 468.349 819.522 468.349C819.502 468.349 819.488 468.348 819.48 468.347C819.462 468.332 819.422 468.291 819.366 468.201C818.418 466.696 816.499 464.595 814.298 462.869C812.151 461.186 809.376 459.572 806.722 459.572C806.307 459.572 805.894 459.682 805.527 459.92C804.908 460.32 804.444 460.564 804.096 460.694C803.856 460.783 803.729 460.795 803.681 460.796C803.606 460.736 803.352 460.464 803.036 459.462L803.013 459.39C802.745 458.539 801.838 458.066 800.988 458.334ZM803.703 460.81C803.703 460.81 803.7 460.808 803.695 460.806C803.7 460.809 803.703 460.811 803.703 460.81ZM819.49 468.355C819.49 468.355 819.489 468.354 819.487 468.353L819.49 468.355Z" fill="#225083"/>
<path fill-rule="evenodd" clip-rule="evenodd" d="M805.839 472.385C804.68 472.74 803.891 472.959 803.254 472.766C802.4 472.507 801.498 472.99 801.239 473.843C800.981 474.697 801.463 475.599 802.317 475.858C803.928 476.346 805.594 475.846 806.532 475.553C806.594 475.774 806.707 476.04 806.912 476.281C807.167 476.581 807.518 476.792 807.919 476.868C808.273 476.936 808.569 476.88 808.733 476.837C809.005 476.767 809.262 476.635 809.368 476.58C809.375 476.576 809.382 476.573 809.387 476.57C809.411 476.558 809.435 476.545 809.46 476.532C809.925 476.292 810.629 475.927 811.972 475.927C812.209 475.927 812.615 476.025 813.221 476.326C813.805 476.617 814.445 477.03 815.123 477.506C815.532 477.794 815.87 478.042 816.209 478.292C816.494 478.501 816.78 478.711 817.111 478.947C817.719 479.379 818.406 479.844 819.04 480.11C819.435 480.276 819.895 480.342 820.368 480.233C820.836 480.126 821.201 479.874 821.46 479.593C821.909 479.105 822.088 478.492 822.115 477.96L826.636 482.07C827.296 482.67 828.317 482.621 828.917 481.961C829.517 481.301 829.469 480.279 828.809 479.679L824.182 475.473C822.519 473.961 820.034 474.651 819.185 476.456C819.121 476.411 819.054 476.364 818.985 476.315C818.77 476.162 818.493 475.96 818.197 475.743C817.794 475.448 817.354 475.126 816.982 474.864C816.261 474.357 815.464 473.833 814.659 473.433C813.876 473.044 812.941 472.697 811.972 472.697C810.873 472.697 810.008 472.87 809.342 473.081C809.29 472.992 809.23 472.905 809.16 472.819C808.713 472.271 808.116 472.102 807.686 472.067C807.288 472.034 806.914 472.101 806.654 472.159C806.378 472.222 806.089 472.308 805.839 472.385Z" fill="#225083"/>
</g>
<defs>
<filter id="filter0_b_214_83" x="515.576" y="238.89" width="47.1062" height="35.9831" filterUnits="userSpaceOnUse" color-interpolation-filters="sRGB">
<feFlood flood-opacity="0" result="BackgroundImageFix"/>
<feGaussianBlur in="BackgroundImageFix" stdDeviation="6.65264"/>
<feComposite in2="SourceAlpha" operator="in" result="effect1_backgroundBlur_214_83"/>
<feBlend mode="normal" in="SourceGraphic" in2="effect1_backgroundBlur_214_83" result="shape"/>
</filter>
<filter id="filter1_b_214_83" x="471.51" y="224.906" width="45.919" height="35.7119" filterUnits="userSpaceOnUse" color-interpolation-filters="sRGB">
<feFlood flood-opacity="0" result="BackgroundImageFix"/>
<feGaussianBlur in="BackgroundImageFix" stdDeviation="6.65264"/>
<feComposite in2="SourceAlpha" operator="in" result="effect1_backgroundBlur_214_83"/>
<feBlend mode="normal" in="SourceGraphic" in2="effect1_backgroundBlur_214_83" result="shape"/>
</filter>
<clipPath id="clip0_214_83">
<rect width="716" height="1066" fill="white" transform="translate(1066) rotate(90)"/>
</clipPath>
<clipPath id="clip1_214_83">
<rect width="70.4085" height="60.1738" fill="white" transform="matrix(-0.904148 -0.42722 -0.421304 0.906919 347.577 286.276)"/>
</clipPath>
</defs>
</svg>
